<?xml version="1.0" standalone="no"?><!DOCTYPE svg PUBLIC "-//W3C//DTD SVG 1.1//EN" "http://www.w3.org/Graphics/SVG/1.1/DTD/svg11.dtd"><svg t="1648176409861" class="icon" viewBox="0 0 1024 1024" version="1.1" xmlns="http://www.w3.org/2000/svg" p-id="1006" xmlns:xlink="http://www.w3.org/1999/xlink" width="200" height="200"><defs><style type="text/css"></style></defs><path d="M516.949333 128.042667l4.949334 0.085333 4.949333 0.170667 4.864 0.170666 4.906667 0.298667 4.906666 0.341333 4.821334 0.426667 4.864 0.426667 4.864 0.512 4.778666 0.597333 4.821334 0.682667 4.778666 0.64 4.778667 0.768 4.693333 0.853333 4.736 0.853333 4.693334 0.938667 4.693333 0.981333 4.650667 1.066667 4.608 1.066667 4.608 1.152 4.608 1.237333 4.565333 1.28 4.565333 1.28 4.48 1.408 4.522667 1.450667 4.48 1.493333 4.394667 1.536 4.437333 1.578667 4.394667 1.621333 4.352 1.706667 4.394666 1.749333 4.309334 1.792 4.266666 1.834667 4.266667 1.877333 4.266667 1.962667 4.181333 2.005333 4.181333 2.048 4.181334 2.133333 4.138666 2.090667 4.053334 2.218667 4.096 2.261333 4.053333 2.304 3.968 2.304 3.968 2.389333 3.968 2.389334 3.925333 2.517333 3.84 2.56 3.882667 2.517333 3.797333 2.56 3.797334 2.730667 3.712 2.688 3.712 2.730667 3.712 2.773333 3.626666 2.816 3.626667 2.901333 3.584 2.901334 3.498667 2.986666 3.498666 2.986667 3.456 2.986667 3.456 3.114666 3.413334 3.114667 3.328 3.157333 3.285333 3.242667 3.328 3.2 3.2 3.328 3.242667 3.285333 3.157333 3.328 3.114667 3.413334 3.072 3.413333 3.029333 3.498667 2.986667 3.498666 2.986666 3.498667 2.901334 3.584 2.901333 3.626667 2.816 3.626666 2.773333 3.712 2.730667 3.669334 2.688 3.754666 2.688 3.84 2.602667 3.754667 2.56 3.882667 2.56 3.84 2.474666 3.925333 2.389334 3.968 2.389333 3.968 2.304 3.968 2.304 4.053333 2.261333 4.096 2.218667 4.053334 2.133333 4.138666 2.090667 4.181334 2.048 4.181333 1.962667 4.224 2.005333 4.224 1.834667 4.266667 1.877333 4.266666 1.792 4.309334 1.792 4.352 1.664 4.394666 1.621333 4.394667 1.578667 4.437333 1.536 4.394667 1.493333 4.48 1.450667 4.522667 1.408 4.48 1.28 4.565333 1.28 4.565333 1.194667 4.608 1.152 4.608 1.109333 4.608 1.066667 4.693334 0.981333 4.693333 0.938667 4.650667 0.853333 4.736 0.853333 4.693333 0.725334 4.778667 0.682666 4.778666 0.682667 4.821334 0.554667 4.778666 0.554666 4.864 0.426667 4.821334 0.426667 4.864 0.341333 4.906666 0.298667 4.906667 0.170666 4.864 0.170667 4.949333 0.085333 4.949334L896 512l-0.042667 4.949333-0.085333 4.949334-0.170667 4.949333-0.170666 4.864-0.298667 4.906667-0.341333 4.906666-0.426667 4.821334-0.426667 4.864-0.554666 4.864-0.554667 4.778666-0.682667 4.821334-0.682666 4.778666-0.768 4.778667-0.810667 4.693333-0.853333 4.736-0.938667 4.693334-0.981333 4.693333-1.066667 4.650667-1.109333 4.608-1.152 4.608-1.194667 4.608-1.28 4.565333-1.28 4.522667-1.408 4.522666-1.450667 4.522667-1.493333 4.48-1.536 4.394667-1.578667 4.437333-1.621333 4.394667-1.706667 4.352-1.749333 4.394666-1.792 4.309334-1.877333 4.266666-1.834667 4.266667-2.005333 4.266667-1.962667 4.181333-2.048 4.181333-2.133333 4.181334-2.090667 4.138666-2.218667 4.053334-2.261333 4.096-2.304 4.053333-2.304 3.968-2.389333 3.968-2.389334 3.968-2.517333 3.925333-2.56 3.84-2.517333 3.882667-2.56 3.797333-2.730667 3.797334-2.688 3.712-2.730667 3.712-2.773333 3.712-2.816 3.626666-2.901333 3.626667-2.944 3.584-2.901334 3.498667-3.029333 3.498666-2.986667 3.456-3.114666 3.456-3.114667 3.413334-3.157333 3.328-3.242667 3.285333-3.2 3.328-3.328 3.2-3.285333 3.242667-3.328 3.157333-3.413334 3.114667-3.413333 3.072-3.498667 3.029333-3.498666 2.986667-3.498667 2.986666-3.584 2.901334-3.626667 2.901333-3.626666 2.816-3.712 2.773333-3.712 2.730667-3.712 2.688-3.84 2.688-3.754667 2.602667-3.882667 2.56-3.84 2.56-3.925333 2.474666-3.968 2.389334-3.968 2.389333-3.968 2.304-4.053333 2.304-4.096 2.261333-4.053334 2.218667-4.138666 2.133333-4.181334 2.090667-4.181333 2.048-4.224 1.962667-4.224 2.005333-4.266667 1.834667-4.266666 1.877333-4.309334 1.792-4.394666 1.792-4.352 1.664-4.394667 1.621333-4.437333 1.578667-4.394667 1.536-4.48 1.493333-4.522667 1.450667-4.522666 1.408-4.522667 1.28-4.565333 1.28-4.608 1.194667-4.608 1.152-4.608 1.109333-4.693334 1.066667-4.693333 0.981333-4.650667 0.938667-4.736 0.853333-4.693333 0.853333-4.778667 0.725334-4.778666 0.682666-4.821334 0.682667-4.778666 0.554667-4.864 0.554666-4.864 0.426667-4.821334 0.426667-4.906666 0.341333-4.906667 0.298667-4.864 0.170666-4.949333 0.170667-4.949334 0.085333L512 896l-4.949333-0.042667-4.949334-0.085333-4.949333-0.170667-4.864-0.170666-4.906667-0.298667-4.906666-0.341333-4.864-0.426667-4.821334-0.426667-4.864-0.554666-4.778666-0.554667-4.821334-0.682667-4.778666-0.682666-4.778667-0.768-4.693333-0.810667-4.736-0.853333-4.693334-0.938667-4.693333-0.981333-4.650667-1.066667-4.608-1.109333-4.608-1.152-4.608-1.194667-4.565333-1.28-4.565333-1.28-4.48-1.408-4.522667-1.450667-4.48-1.493333-4.394667-1.536-4.437333-1.578667-4.394667-1.621333-4.394666-1.706667-4.352-1.749333-4.309334-1.792-4.266666-1.877333-4.266667-1.834667-4.266667-2.005333-4.181333-1.962667-4.181333-2.048-4.181334-2.133333-4.138666-2.090667-4.096-2.218667-4.053334-2.261333-4.053333-2.304-3.968-2.304-3.968-2.389333-3.968-2.389334-3.925333-2.517333-3.84-2.56-3.882667-2.517333-3.797333-2.56-3.797334-2.730667-3.754666-2.688-3.669334-2.730667-3.712-2.773333-3.626666-2.816-3.626667-2.901333-3.584-2.944-3.498667-2.901334-3.498666-3.029333-3.456-2.986667-3.456-3.114666-3.413334-3.114667-3.328-3.157333-3.285333-3.242667-3.328-3.2-3.2-3.328-3.242667-3.285333-3.157333-3.328-3.114667-3.413334-3.072-3.413333-3.029333-3.498667-2.986667-3.498666-2.986666-3.498667-2.901334-3.584-2.901333-3.626667-2.816-3.626666-2.773333-3.712-2.730667-3.712-2.688-3.712-2.688-3.84-2.602667-3.754667-2.56-3.882667-2.56-3.84-2.474666-3.925333-2.389334-3.968-2.389333-3.968-2.304-3.968-2.304-4.053333-2.261333-4.096-2.218667-4.053334-2.133333-4.138666-2.090667-4.181334-2.048-4.181333-2.005333-4.224-1.962667-4.224-1.877333-4.266667-1.834667-4.266666-1.792-4.309334-1.792-4.394666-1.664-4.352-1.621333-4.394667-1.578667-4.437333-1.536-4.394667-1.493333-4.48-1.450667-4.522667-1.408-4.48-1.28-4.565333-1.28-4.565333-1.237333-4.608-1.152-4.608-1.066667-4.608-1.066667-4.693334-0.981333-4.693333-0.938667-4.650667-0.853333-4.736-0.853333-4.693333-0.768-4.778667-0.64-4.778666-0.682667-4.821334-0.597333-4.778666-0.512-4.864-0.426667-4.864-0.426667-4.821334-0.341333-4.906666-0.298667-4.906667-0.170666-4.864-0.170667-4.949333-0.085333-4.949334L128 512l0.042667-4.949333 0.085333-4.949334 0.170667-4.949333 0.170666-4.864 0.298667-4.906667 0.341333-4.906666 0.426667-4.821334 0.426667-4.864 0.512-4.864 0.597333-4.778666 0.682667-4.821334 0.64-4.778666 0.768-4.778667 0.853333-4.693333 0.853333-4.736 0.938667-4.693334 0.981333-4.693333 1.066667-4.650667 1.066667-4.608 1.152-4.608 1.237333-4.608 1.28-4.565333 1.28-4.522667 1.408-4.522666 1.450667-4.522667 1.493333-4.48 1.536-4.394667 1.578667-4.437333 1.621333-4.394667 1.706667-4.352 1.749333-4.394666 1.792-4.309334 1.834667-4.266666 1.877333-4.266667 1.962667-4.266667 2.005333-4.181333 2.048-4.181333 2.133333-4.181334 2.090667-4.138666 2.218667-4.053334 2.261333-4.096 2.304-4.053333 2.304-3.968 2.389333-3.968 2.389334-3.968 2.517333-3.925333 2.56-3.84 2.517333-3.882667 2.56-3.797333 2.730667-3.797334 2.688-3.712 2.730667-3.712 2.773333-3.712 2.816-3.626666 2.901333-3.626667 2.901334-3.584 2.986666-3.498667 2.986667-3.498666 2.986667-3.456 3.114666-3.456 3.114667-3.413334 3.157333-3.328 3.242667-3.285333 3.2-3.328 3.328-3.2 3.285333-3.242667 3.328-3.157333 3.413334-3.114667 3.413333-3.072 3.498667-3.029333 3.498666-2.986667 3.498667-2.986666 3.584-2.901334 3.626667-2.901333 3.626666-2.816 3.712-2.773333 3.669334-2.730667 3.754666-2.688 3.84-2.688 3.754667-2.602667 3.882667-2.56 3.84-2.56 3.925333-2.474666 3.968-2.389334 3.968-2.389333 3.968-2.304 4.053333-2.304 4.053334-2.261333 4.096-2.218667 4.138666-2.133333 4.181334-2.090667 4.181333-2.048 4.224-1.962667 4.224-2.005333 4.266667-1.834667 4.266666-1.877333 4.309334-1.792 4.352-1.792 4.394666-1.664 4.394667-1.621333 4.437333-1.578667 4.394667-1.536 4.48-1.493333 4.522667-1.450667 4.48-1.408 4.565333-1.28 4.565333-1.28 4.608-1.194667 4.608-1.152 4.608-1.109333 4.693334-1.066667 4.693333-0.981333 4.650667-0.938667 4.736-0.853333 4.693333-0.853333 4.778667-0.725334 4.778666-0.682666 4.821334-0.682667 4.778666-0.554667 4.864-0.554666 4.821334-0.426667 4.864-0.426667 4.906666-0.341333 4.906667-0.298667 4.864-0.170666 4.949333-0.170667 4.949334-0.085333L512 128l4.949333 0.042667z m-9.386666 42.666666l-4.394667 0.042667-4.352 0.170667-4.394667 0.170666-4.352 0.256-4.394666 0.341334-4.266667 0.341333-4.352 0.426667-4.266667 0.426666-4.266666 0.512-4.266667 0.597334-4.266667 0.597333-4.181333 0.682667-4.266667 0.725333-4.138666 0.768-4.181334 0.853333-4.181333 0.853334-4.138667 0.938666-4.053333 0.938667-4.138667 1.066667-4.096 1.066666-4.010666 1.152-4.053334 1.152-4.010666 1.28-4.010667 1.194667-3.968 1.365333-3.925333 1.322667-3.968 1.408-3.84 1.493333-3.925334 1.493334-3.84 1.536-3.84 1.621333-3.84 1.621333-3.797333 1.706667-3.712 1.706667-3.754667 1.792-3.712 1.792-3.669333 1.877333-3.712 1.92-3.584 1.92-3.669333 2.048-3.541334 2.005333-3.626666 2.048-3.498667 2.133334-3.498667 2.133333-3.498666 2.218667-3.413334 2.261333-3.413333 2.304-3.413333 2.304-3.413334 2.346667-3.285333 2.389333-3.328 2.474667-3.242667 2.474666-3.285333 2.517334-3.157333 2.56-3.2 2.56-3.114667 2.645333-3.157333 2.688-3.029334 2.688-3.114666 2.730667-2.986667 2.773333-2.986667 2.816-2.944 2.858667-2.901333 2.901333-2.901333 2.901333-2.858667 2.944-2.816 2.986667-2.773333 2.986667-2.730667 3.072-2.688 3.072-2.688 3.157333-2.645333 3.114667-2.56 3.2-2.56 3.157333-2.517334 3.285333-2.474666 3.242667-2.474667 3.328-2.389333 3.328-2.346667 3.413333-2.304 3.328-2.304 3.413334-2.261333 3.456-2.218667 3.498666-2.133333 3.498667-2.133334 3.498667-2.048 3.626666-2.005333 3.541334-2.048 3.669333-1.92 3.584-1.92 3.712-1.877333 3.669333-1.792 3.712-1.792 3.754667-1.706667 3.712-1.706667 3.84-1.621333 3.84-1.621333 3.84-1.536 3.84-1.493334 3.84-1.493333 3.882667-1.408 3.968-1.322667 3.925333-1.365333 3.968-1.237333 4.010667-1.28 4.010666-1.109334 4.053334-1.152 4.010666-1.066666 4.096-1.066667 4.138667-0.938667 4.053333-0.896 4.138667-0.938666 4.181333-0.810667 4.181334-0.768 4.181333-0.725333 4.224-0.682667 4.224-0.597333 4.224-0.597334 4.266667-0.512 4.266666-0.426666 4.266667-0.426667 4.309333-0.341333 4.309334-0.341334 4.394666-0.256 4.352-0.170666 4.394667-0.170667 4.352-0.085333 4.394667v8.832l0.085333 4.437333 0.170667 4.352 0.170666 4.394667 0.256 4.352 0.341334 4.352 0.341333 4.352 0.426667 4.309333 0.426666 4.266667 0.512 4.266666 0.597334 4.266667 0.597333 4.266667 0.682667 4.181333 0.725333 4.266667 0.768 4.138666 0.853333 4.181334 0.853334 4.181333 0.938666 4.138667 0.938667 4.053333 1.066667 4.138667 1.066666 4.096 1.152 4.010666 1.152 4.053334 1.28 4.010666 1.194667 4.010667 1.365333 3.968 1.322667 3.925333 1.408 3.925334 1.493333 3.925333 1.493334 3.84 1.536 3.84 1.621333 3.84 1.621333 3.84 1.706667 3.84 1.706667 3.712 1.792 3.754667 1.792 3.712 1.877333 3.669333 1.92 3.712 1.92 3.584 2.048 3.669333 2.005333 3.541334 2.048 3.584 2.133334 3.541333 2.133333 3.498667 2.218667 3.498666 2.261333 3.413334 2.304 3.413333 2.304 3.413333 2.346667 3.413334 2.389333 3.285333 2.474667 3.328 2.474666 3.242667 2.517334 3.285333 2.56 3.157333 2.56 3.2 2.645333 3.114667 2.688 3.114667 2.688 3.072 2.730667 3.072 2.773333 3.029333 2.816 2.986667 2.858667 2.944 2.901333 2.901333 2.901333 2.901333 2.944 2.858667 2.986667 2.816 2.986667 2.773333 3.114666 2.730667 3.029334 2.688 3.157333 2.688 3.114667 2.645333 3.2 2.56 3.157333 2.56 3.285333 2.517334 3.242667 2.474666 3.328 2.474667 3.328 2.389333 3.328 2.346667 3.413333 2.304 3.413334 2.304 3.456 2.261333 3.498666 2.218667 3.498667 2.133333 3.541333 2.133334 3.584 2.048 3.541334 2.005333 3.669333 2.048 3.584 1.92 3.712 1.92 3.669333 1.834667 3.712 1.834666 3.754667 1.792 3.712 1.706667 3.84 1.706667 3.84 1.621333 3.84 1.621333 3.84 1.536 3.84 1.493334 3.882667 1.493333 3.968 1.408 3.925333 1.322667 3.968 1.365333 4.010667 1.237333 4.010666 1.28 4.053334 1.109334 4.010666 1.152 4.096 1.066666 4.138667 1.066667 4.053333 0.938667 4.138667 0.938666 4.181333 0.853334 4.181334 0.853333 4.181333 0.768 4.224 0.725333 4.224 0.682667 4.224 0.597333 4.266667 0.597334 4.266666 0.512 4.266667 0.426666 4.309333 0.426667 4.309334 0.341333 4.394666 0.341334 4.352 0.256 4.394667 0.170666 4.352 0.170667 4.394667 0.085333h8.832l4.437333-0.085333 4.352-0.170667 4.394667-0.170666 4.352-0.256 4.352-0.341334 4.352-0.341333 4.309333-0.426667 4.266667-0.426666 4.266666-0.512 4.266667-0.597334 4.266667-0.597333 4.181333-0.682667 4.266667-0.725333 4.138666-0.768 4.181334-0.853333 4.181333-0.853334 4.138667-0.938666 4.053333-0.938667 4.138667-1.066667 4.096-1.066666 4.010666-1.152 4.053334-1.152 4.010666-1.28 4.010667-1.194667 3.968-1.365333 3.925333-1.322667 3.925334-1.408 3.925333-1.493333 3.84-1.493334 3.84-1.536 3.84-1.621333 3.84-1.621333 3.84-1.706667 3.712-1.706667 3.754667-1.792 3.712-1.792 3.669333-1.877333 3.712-1.92 3.584-1.92 3.669333-2.048 3.541334-2.005333 3.584-2.048 3.541333-2.133334 3.498667-2.133333 3.498666-2.218667 3.413334-2.261333 3.413333-2.304 3.413333-2.304 3.413334-2.346667 3.285333-2.389333 3.328-2.474667 3.242667-2.474666 3.285333-2.517334 3.157333-2.56 3.2-2.56 3.114667-2.645333 3.114667-2.688 3.072-2.688 3.072-2.730667 3.029333-2.773333 2.986667-2.816 2.944-2.858667 2.901333-2.901333 2.901333-2.901333 2.858667-2.944 2.816-2.986667 2.773333-2.986667 2.730667-3.072 2.688-3.072 2.688-3.157333 2.645333-3.114667 2.56-3.2 2.56-3.157333 2.517334-3.285333 2.474666-3.242667 2.474667-3.328 2.389333-3.328 2.346667-3.413333 2.304-3.328 2.304-3.413334 2.261333-3.456 2.218667-3.498666 2.133333-3.498667 2.133334-3.498667 2.048-3.626666 2.005333-3.541334 2.048-3.669333 1.92-3.584 1.92-3.712 1.834667-3.669333 1.834666-3.712 1.792-3.754667 1.706667-3.712 1.706667-3.84 1.621333-3.84 1.621333-3.84 1.536-3.84 1.493334-3.84 1.493333-3.882667 1.408-3.968 1.322667-3.925333 1.365333-3.968 1.237333-4.010667 1.28-4.010666 1.109334-4.053334 1.152-4.010666 1.066666-4.096 1.066667-4.138667 0.938667-4.053333 0.896-4.138667 0.938666-4.181333 0.810667-4.181334 0.768-4.181333 0.725333-4.224 0.682667-4.224 0.597333-4.224 0.597334-4.266667 0.512-4.266666 0.426666-4.266667 0.426667-4.309333 0.341333-4.309334 0.341334-4.394666 0.256-4.352 0.170666-4.394667 0.170667-4.352 0.085333-4.394667v-8.832l-0.085333-4.437333-0.170667-4.352-0.170666-4.394667-0.256-4.352-0.341334-4.352-0.341333-4.352-0.426667-4.309333-0.426666-4.266667-0.512-4.266666-0.597334-4.266667-0.597333-4.266667-0.682667-4.181333-0.725333-4.266667-0.768-4.138666-0.853333-4.181334-0.853334-4.181333-0.938666-4.138667-0.938667-4.053333-1.066667-4.138667-1.066666-4.096-1.152-4.010666-1.152-4.053334-1.28-4.010666-1.194667-4.010667-1.365333-3.968-1.322667-3.925333-1.408-3.925334-1.493333-3.925333-1.493334-3.84-1.536-3.84-1.621333-3.84-1.621333-3.84-1.706667-3.84-1.706667-3.712-1.792-3.754667-1.834666-3.712-1.834667-3.669333-1.92-3.712-1.92-3.584-2.048-3.669333-2.005333-3.541334-2.048-3.584-2.133334-3.541333-2.133333-3.498667-2.218667-3.498666-2.261333-3.413334-2.304-3.413333-2.304-3.413333-2.346667-3.413334-2.389333-3.285333-2.474667-3.328-2.474666-3.242667-2.517334-3.285333-2.56-3.157333-2.56-3.2-2.645333-3.114667-2.688-3.114667-2.688-3.072-2.730667-3.072-2.773333-3.029333-2.816-2.986667-2.858667-2.944-2.901333-2.901333-2.901333-2.901333-2.944-2.858667-2.986667-2.816-2.986667-2.773333-3.114666-2.730667-3.029334-2.688-3.157333-2.688-3.114667-2.645333-3.2-2.56-3.157333-2.56-3.285333-2.517334-3.242667-2.474666-3.328-2.474667-3.328-2.389333-3.328-2.346667-3.413333-2.304-3.413334-2.304-3.456-2.261333-3.498666-2.218667-3.498667-2.133333-3.541333-2.133334-3.584-2.048-3.541334-2.005333-3.669333-2.048-3.584-1.92-3.712-1.92-3.669333-1.834667-3.712-1.834666-3.754667-1.792-3.712-1.706667-3.84-1.706667-3.84-1.621333-3.84-1.621333-3.84-1.536-3.84-1.493334-3.882667-1.493333-3.968-1.408-3.925333-1.322667-3.968-1.365333-4.010667-1.237333-4.010666-1.28-4.053334-1.109334-4.010666-1.152-4.096-1.066666-4.138667-1.066667-4.053333-0.938667-4.138667-0.896-4.181333-0.938666-4.181334-0.810667-4.181333-0.768-4.224-0.725333-4.224-0.682667-4.224-0.597333-4.266667-0.597334-4.266666-0.512-4.266667-0.426666-4.309333-0.426667-4.309334-0.341333-4.394666-0.341334-4.352-0.256-4.394667-0.170666-4.352-0.170667L516.394667 170.666667h-8.789334z" fill="#00af2c" p-id="1007"></path><path d="M848.213333 189.781333c32.426667 1.408 66.474667 12.970667 80.426667 42.368 28.586667 59.904-19.712 122.325333-52.608 166.485334-153.258667 205.653333-384.725333 373.674667-632.618667 428.074666-54.698667 11.989333-121.6 18.261333-147.541333-33.792-23.68-47.402667 4.224-119.893333 32.213333-129.706666 18.346667-6.4 38.613333 5.205333 19.285334 42.368-11.392 22.912-22.826667 50.645333-13.013334 68.906666 21.205333 39.509333 72.789333 17.237333 106.666667 9.045334 9.728-2.346667 19.413333-5.034667 29.013333-7.936 10.453333-3.2 20.906667-6.741333 31.232-10.496 231.466667-84.053333 460.032-230.570667 573.013334-442.112a241.322667 241.322667 0 0 0 11.648-25.429334c1.109333-2.986667 2.133333-5.973333 3.114666-9.045333 0.768-2.773333 1.493333-5.546667 2.133334-8.32 6.272-28.714667-32.384-51.413333-76.117334-45.781333 0 0-10.794667 0.128-16.768-5.12-17.109333-14.933333-2.389333-40.533333 49.92-39.509334z" fill="#00af2c" p-id="1008"></path><path d="M426.666667 469.333333m-42.666667 0a42.666667 42.666667 0 1 0 85.333333 0 42.666667 42.666667 0 1 0-85.333333 0Z" fill="#00af2c" p-id="1009"></path><path d="M428.842667 426.709333l2.176 0.170667 2.133333 0.298667 2.090667 0.341333 2.090666 0.512 2.005334 0.554667 2.005333 0.682666 1.92 0.768 1.877333 0.853334 1.834667 0.938666 1.792 1.024 1.749333 1.109334 1.664 1.194666 1.621334 1.237334 1.536 1.365333 1.493333 1.408 1.408 1.493333 1.365333 1.536 1.237334 1.621334 1.194666 1.664 1.109334 1.749333 1.024 1.792 0.938666 1.834667 0.853334 1.877333 0.768 1.92 0.682666 2.005333 0.554667 2.005334 0.512 2.090666 0.341333 2.090667 0.298667 2.133333 0.170667 2.176L469.333333 469.333333l-0.042666 2.176-0.170667 2.176-0.298667 2.133334-0.341333 2.090666-0.512 2.090667-0.554667 2.005333-0.682666 2.005334-0.768 1.92-0.853334 1.877333-0.938666 1.834667-1.024 1.792-1.109334 1.749333-1.194666 1.664-1.237334 1.621333-1.365333 1.536-1.408 1.493334-1.493333 1.408-1.536 1.365333-1.621334 1.237333-1.664 1.194667-1.749333 1.109333-1.792 1.024-1.834667 0.938667-1.877333 0.853333-1.92 0.768-2.005333 0.682667-2.005334 0.554667-2.090666 0.512-2.090667 0.341333-2.133333 0.298667-2.176 0.170666L426.666667 512l-2.176-0.042667-2.176-0.170666-2.133334-0.298667-2.090666-0.341333-2.090667-0.512-2.005333-0.554667-2.005334-0.682667-1.92-0.768-1.877333-0.853333-1.834667-0.938667-1.792-1.024-1.749333-1.109333-1.664-1.194667-1.621333-1.237333-1.536-1.365333-1.493334-1.408-1.408-1.493334-1.365333-1.536-1.237333-1.621333-1.194667-1.664-1.109333-1.749333-1.024-1.792-0.938667-1.834667-0.853333-1.877333-0.768-1.92-0.682667-2.005334-0.554667-2.005333-0.512-2.090667-0.341333-2.090666-0.298667-2.133334-0.170666-2.176L384 469.333333l0.042667-2.176 0.170666-2.176 0.298667-2.133333 0.341333-2.090667 0.512-2.090666 0.554667-2.005334 0.682667-2.005333 0.768-1.92 0.853333-1.877333 0.938667-1.834667 1.024-1.792 1.109333-1.749333 1.194667-1.664 1.237333-1.621334 1.365333-1.536 1.408-1.493333 1.493334-1.408 1.536-1.365333 1.621333-1.237334 1.664-1.194666 1.749333-1.109334 1.792-1.024 1.834667-0.938666 1.877333-0.853334 1.92-0.768 2.005334-0.682666 2.005333-0.554667 2.090667-0.512 2.090666-0.341333 2.133334-0.298667 2.176-0.170667L426.666667 426.666667l2.176 0.042666zM426.666667 469.333333z" fill="#00af2c" p-id="1010"></path><path d="M469.333333 298.666667m-42.666666 0a42.666667 42.666667 0 1 0 85.333333 0 42.666667 42.666667 0 1 0-85.333333 0Z" fill="#00af2c" p-id="1011"></path><path d="M471.509333 256.042667l2.176 0.170666 2.133334 0.298667 2.090666 0.341333 2.090667 0.512 2.005333 0.554667 2.005334 0.682667 1.92 0.768 1.877333 0.853333 1.834667 0.938667 1.792 1.024 1.749333 1.109333 1.664 1.194667 1.621333 1.237333 1.536 1.365333 1.493334 1.408 1.408 1.493334 1.365333 1.536 1.237333 1.621333 1.194667 1.664 1.109333 1.749333 1.024 1.792 0.938667 1.834667 0.853333 1.877333 0.768 1.92 0.682667 2.005334 0.554667 2.005333 0.512 2.090667 0.341333 2.090666 0.298667 2.133334 0.170666 2.176L512 298.666667l-0.042667 2.176-0.170666 2.176-0.298667 2.133333-0.341333 2.090667-0.512 2.090666-0.554667 2.005334-0.682667 2.005333-0.768 1.92-0.853333 1.877333-0.938667 1.834667-1.024 1.792-1.109333 1.749333-1.194667 1.664-1.237333 1.621334-1.365333 1.536-1.408 1.493333-1.493334 1.408-1.536 1.365333-1.621333 1.237334-1.664 1.194666-1.749333 1.109334-1.792 1.024-1.834667 0.938666-1.877333 0.853334-1.92 0.768-2.005334 0.682666-2.005333 0.554667-2.090667 0.512-2.090666 0.341333-2.133334 0.298667-2.176 0.170667L469.333333 341.333333l-2.176-0.042666-2.176-0.170667-2.133333-0.298667-2.090667-0.341333-2.090666-0.512-2.005334-0.554667-2.005333-0.682666-1.92-0.768-1.877333-0.853334-1.834667-0.938666-1.792-1.024-1.749333-1.109334-1.664-1.194666-1.621334-1.237334-1.536-1.365333-1.493333-1.408-1.408-1.493333-1.365333-1.536-1.237334-1.621334-1.194666-1.664-1.109334-1.749333-1.024-1.792-0.938666-1.834667-0.853334-1.877333-0.768-1.92-0.682666-2.005333-0.554667-2.005334-0.512-2.090666-0.341333-2.090667-0.298667-2.133333-0.170667-2.176L426.666667 298.666667l0.042666-2.176 0.170667-2.176 0.298667-2.133334 0.341333-2.090666 0.512-2.090667 0.554667-2.005333 0.682666-2.005334 0.768-1.92 0.853334-1.877333 0.938666-1.834667 1.024-1.792 1.109334-1.749333 1.194666-1.664 1.237334-1.621333 1.365333-1.536 1.408-1.493334 1.493333-1.408 1.536-1.365333 1.621334-1.237333 1.664-1.194667 1.749333-1.109333 1.792-1.024 1.834667-0.938667 1.877333-0.853333 1.92-0.768 2.005333-0.682667 2.005334-0.554667 2.090666-0.512 2.090667-0.341333 2.133333-0.298667 2.176-0.170666L469.333333 256l2.176 0.042667zM469.333333 298.666667z" fill="#00af2c" p-id="1012"></path><path d="M278.442667 512l1.066666 0.085333 1.066667 0.170667 1.024 0.170667 1.066667 0.256 0.981333 0.256 1.024 0.341333 0.938667 0.426667 0.981333 0.426666 0.896 0.426667 0.896 0.512 0.853333 0.554667 0.853334 0.597333 0.810666 0.64 0.768 0.682667 0.725334 0.682666 0.725333 0.768 0.682667 0.768 0.64 0.810667 0.554666 0.853333 0.597334 0.853334 0.512 0.896 0.426666 0.896 0.426667 0.938666 0.426667 0.981334 0.298666 0.981333 0.298667 1.024 0.256 1.024 0.170667 1.066667 0.170666 1.066666 0.042667 1.066667L298.666667 533.333333v1.066667l-0.085334 1.109333-0.170666 1.066667-0.170667 1.024-0.256 1.066667-0.298667 0.981333-0.341333 1.024-0.341333 0.938667-0.426667 0.938666-0.469333 0.938667-0.512 0.896-0.597334 0.853333-0.554666 0.853334-0.64 0.810666-0.682667 0.768-0.725333 0.725334-0.725334 0.725333-0.768 0.682667-0.810666 0.597333-0.853334 0.597333-0.853333 0.554667-0.896 0.512-0.896 0.469333-0.981333 0.426667-0.938667 0.426667-1.024 0.298666-0.981333 0.298667-1.066667 0.256-1.024 0.170667-1.066667 0.128-1.066666 0.085333L277.333333 554.666667h-1.109333l-1.066667-0.128-1.066666-0.128-1.024-0.170667-1.066667-0.256-0.981333-0.298667-1.024-0.341333-0.938667-0.384-0.981333-0.426667-0.896-0.426666-0.896-0.554667-0.853334-0.554667-0.853333-0.597333-0.810667-0.597333-0.768-0.682667-0.725333-0.725333-0.725333-0.725334-0.682667-0.768-0.64-0.810666-0.554667-0.853334-0.597333-0.853333-0.512-0.896-0.426667-0.938667-0.426666-0.938666-0.426667-0.938667-0.298667-1.024-0.298666-0.981333-0.256-1.066667-0.170667-1.024-0.170667-1.066667-0.042666-1.109333L256 533.333333v-1.109333l0.085333-1.066667 0.170667-1.066666 0.170667-1.066667 0.256-1.024 0.298666-1.024 0.341334-0.981333 0.341333-0.981334 0.426667-0.938666 0.469333-0.896 0.512-0.896 0.597333-0.853334 0.554667-0.853333 0.64-0.810667 0.682667-0.768 0.725333-0.768 0.725333-0.682666 0.768-0.682667 0.810667-0.64 0.853333-0.597333 0.853334-0.554667 0.896-0.512 0.896-0.426667 0.981333-0.426666 0.938667-0.426667 1.024-0.341333 0.981333-0.256 1.066667-0.256 1.024-0.170667 1.066666-0.170667 1.066667-0.085333h2.218667z m-1.109334 21.333333zM747.776 597.333333l1.066667 0.085334 1.066666 0.170666 1.024 0.170667 1.066667 0.256 0.981333 0.256 1.024 0.341333 0.938667 0.426667 0.981333 0.426667 0.896 0.426666 0.896 0.512 0.853334 0.554667 0.853333 0.597333 0.810667 0.64 0.768 0.682667 0.725333 0.682667 0.725333 0.768 0.682667 0.768 0.64 0.810666 0.554667 0.853334 0.597333 0.853333 0.512 0.896 0.426667 0.896 0.426666 0.938667 0.426667 0.981333 0.341333 0.981333 0.256 1.024 0.256 1.024 0.170667 1.066667 0.170667 1.066667 0.042666 1.066666 0.042667 1.109334v1.066666l-0.085333 1.109334-0.170667 1.066666-0.170667 1.024-0.256 1.066667-0.298666 0.981333-0.341334 1.024-0.341333 0.938667-0.426667 0.938667-0.469333 0.938666-0.512 0.896-0.597333 0.853334-0.597334 0.853333-0.597333 0.810667-0.682667 0.768-0.725333 0.725333-0.725333 0.725333-0.768 0.682667-0.810667 0.597333-0.853333 0.597334-0.853334 0.554666-0.896 0.512-0.896 0.469334-0.981333 0.426666-0.938667 0.426667-1.024 0.298667-0.981333 0.298666-1.066667 0.256-1.024 0.170667-1.066666 0.128-1.066667 0.085333L746.666667 640h-1.109334l-1.066666-0.128-1.066667-0.128-1.024-0.170667-1.066667-0.256-0.981333-0.298666-1.024-0.341334-0.938667-0.384-0.981333-0.426666-0.896-0.426667-0.896-0.554667-0.853333-0.554666-0.853334-0.597334-0.810666-0.597333-0.768-0.682667-0.725334-0.725333-0.725333-0.725333-0.682667-0.768-0.64-0.810667-0.554666-0.853333-0.597334-0.853334-0.512-0.896-0.426666-0.938666-0.426667-0.938667-0.426667-0.938667-0.341333-1.024-0.256-0.981333-0.256-1.066667-0.170667-1.024-0.170666-1.066666-0.042667-1.109334L725.333333 618.666667v-1.109334l0.085334-1.066666 0.170666-1.066667 0.170667-1.066667 0.256-1.024 0.298667-1.024 0.341333-0.981333 0.341333-0.981333 0.426667-0.938667 0.469333-0.896 0.512-0.896 0.597334-0.853333 0.597333-0.853334 0.597333-0.810666 0.682667-0.768 0.725333-0.768 0.725334-0.682667 0.768-0.682667 0.810666-0.64 0.853334-0.597333 0.853333-0.554667 0.896-0.512 0.896-0.426666 0.981333-0.426667 0.938667-0.426667 1.024-0.341333 0.981333-0.256 1.066667-0.256 1.024-0.170667 1.066667-0.170666 1.066666-0.085334h2.218667z m-1.109333 21.333334z" fill="#00af2c" p-id="1013"></path></svg>