<?xml version="1.0" standalone="no"?><!DOCTYPE svg PUBLIC "-//W3C//DTD SVG 1.1//EN" "http://www.w3.org/Graphics/SVG/1.1/DTD/svg11.dtd"><svg t="1648024180903" class="icon" viewBox="0 0 1024 1024" version="1.1" xmlns="http://www.w3.org/2000/svg" p-id="44867" xmlns:xlink="http://www.w3.org/1999/xlink" width="200" height="200"><defs><style type="text/css"></style></defs><path d="M770.3 523.5V517c0-142-116.2-258.3-258.3-258.3-142 0-258.3 116.3-258.3 258.3v6.5C156.3 531.4 79 613.6 79 713c0 104.6 85.6 190.1 190.1 190.1h485.3c104.6 0 190.1-85.6 190.1-190.1 0.1-99.3-77-181.4-174.2-189.5z" fill="#FFFFFF" p-id="44868"></path><path d="M754.4 835.4H269.1c-93 0-171-67.7-187.1-156.2-2 11-3 22.3-3 33.8 0 104.6 85.6 190.1 190.1 190.1h485.3c104.6 0 190.1-85.6 190.1-190.1 0-11.5-1.1-22.8-3-33.8-16.1 88.5-94.1 156.2-187.1 156.2z" fill="#B9D5EA" p-id="44869"></path><path d="M754.4 913.1H269.1c-53.2 0-103.4-20.9-141.4-58.8C89.9 816.4 69 766.2 69 713c0-50.4 19-98.7 53.5-135.9 32.2-34.7 75-56.7 121.3-62.6 0.7-70.4 28.6-136.7 78.8-186.9 50.8-50.8 118.1-78.8 189.5-78.8s138.7 28 189.5 78.8c50.2 50.2 78.1 116.5 78.8 187 46.2 6 88.9 28.1 121 62.8 34.4 37.2 53.3 85.4 53.3 135.7 0 53.2-20.9 103.4-58.8 141.4-38 37.7-88.2 58.6-141.5 58.6zM512 268.7c-136.9 0-248.3 111.4-248.3 248.3v15.7l-9.2 0.7C161.7 541 89 619.8 89 713c0 99.3 80.8 180.1 180.1 180.1h485.3c99.3 0 180.1-80.8 180.1-180.1 0-92.9-72.5-171.8-165.1-179.5l-9.2-0.8V517c0.1-136.9-111.3-248.3-248.2-248.3z" fill="#322E63" p-id="44870"></path><path d="M690.5 515.5h-58.8V191.2c0-13.5-11.1-24.6-24.6-24.6H417c-13.5 0-24.6 11.1-24.6 24.6v324.2h-58.8c-21.8 0-32.8 26.2-17.6 41.8l178.4 183.1c9.7 9.9 25.6 9.9 35.3 0l178.4-183.1c15.2-15.5 4.1-41.7-17.6-41.7z" fill="#B9D5EA" p-id="44871"></path><path d="M690.5 443.6h-58.8V119.4c0-13.5-11.1-24.6-24.6-24.6H417c-13.5 0-24.6 11.1-24.6 24.6v324.2h-58.8c-21.8 0-32.8 26.2-17.6 41.8l178.4 183.1c9.7 9.9 25.6 9.9 35.3 0l178.4-183.1c15.2-15.6 4.1-41.8-17.6-41.8z" fill="#76C49A" p-id="44872"></path><path d="M690.5 443.6h-58.8V119.4c0-13.5-11.1-24.6-24.6-24.6H417c-13.5 0-24.6 11.1-24.6 24.6v324.2h-58.8c-21.8 0-32.8 26.2-17.6 41.8l178.4 183.1c9.7 9.9 25.6 9.9 35.3 0l178.4-183.1c15.2-15.6 4.1-41.8-17.6-41.8z" fill="#4E98A0" p-id="44873"></path><path d="M333.6 443.6c-6.3 0-11.7 2.2-15.8 5.7l176.6 151.2c9.7 9.9 25.6 9.9 35.3 0l176.6-151.2c-4.1-3.5-9.5-5.7-15.8-5.7h-58.8V119.4c0-13.5-11.1-24.6-24.6-24.6H417c-13.5 0-24.6 11.1-24.6 24.6v324.2h-58.8z" fill="#76C49A" p-id="44874"></path><path d="M512 686c-9.4 0-18.2-3.7-24.8-10.5L308.8 492.4c-9.9-10.1-12.6-24.6-7.1-37.6s17.7-21.2 31.9-21.2h48.8V119.4c0-19.1 15.5-34.6 34.6-34.6h190c19.1 0 34.6 15.5 34.6 34.6v314.2h48.8c14.2 0 26.4 8.1 31.9 21.2s2.8 27.5-7.1 37.6L536.8 675.6c-6.6 6.7-15.4 10.4-24.8 10.4zM333.6 453.6c-6.1 0-11.1 3.3-13.5 8.9-2.4 5.6-1.2 11.5 3 15.9l178.4 183.1c2.8 2.8 6.5 4.4 10.5 4.4s7.7-1.6 10.5-4.4l178.4-183.1c4.2-4.4 5.4-10.3 3-15.9-2.4-5.6-7.4-8.9-13.5-8.9h-68.8V119.4c0-8.1-6.6-14.6-14.6-14.6H417c-8.1 0-14.6 6.6-14.6 14.6v334.2h-68.8z" fill="#322E63" p-id="44875"></path></svg>