<?xml version="1.0" standalone="no"?><!DOCTYPE svg PUBLIC "-//W3C//DTD SVG 1.1//EN" "http://www.w3.org/Graphics/SVG/1.1/DTD/svg11.dtd"><svg t="1648082072470" class="icon" viewBox="0 0 1024 1024" version="1.1" xmlns="http://www.w3.org/2000/svg" p-id="1006" xmlns:xlink="http://www.w3.org/1999/xlink" width="200" height="200"><defs><style type="text/css"></style></defs><path d="M514.304 84.181333l2.304 0.128 2.304 0.213334 2.261333 0.298666 2.261334 0.426667 2.218666 0.426667 2.176 0.512 2.176 0.597333 2.176 0.682667 2.090667 0.725333 2.090667 0.853333 2.048 0.896 2.048 0.981334 1.962666 1.024 1.92 1.109333 1.92 1.194667 1.834667 1.28 1.834667 1.28 1.749333 1.322666 1.706667 1.450667 1.706666 1.493333 1.578667 1.578667 1.578667 1.578667 1.493333 1.706666 1.450667 1.706667 1.408 1.792 1.322666 1.834667 1.28 1.877333 1.194667 1.962667 1.152 2.005333 1.066667 2.048 0.981333 2.133333 86.912 191.189334 208.768 23.552 2.261333 0.341333 2.304 0.426667 2.218667 0.426666 2.261333 0.512 2.176 0.64 2.176 0.682667 2.090667 0.768 2.090667 0.853333 2.090666 0.896 2.005334 0.981334 1.962666 1.066666 1.962667 1.152 1.877333 1.152 1.834667 1.28 1.834667 1.322667 1.749333 1.365333 1.706667 1.450667 1.664 1.493333 1.578666 1.578667 1.536 1.621333 1.493334 1.706667 1.450666 1.706667 1.365334 1.749333 1.322666 1.834667 1.237334 1.877333 1.194666 1.92 1.109334 2.005333 1.024 2.005334 0.981333 2.048 0.896 2.133333 0.853333 2.133333 0.768 2.218667 0.64 2.218667 0.597334 2.218666 0.512 2.218667 0.426666 2.261333 0.341334 2.261334 0.256 2.261333 0.170666 2.261333 0.128 2.218667v2.261333l-0.042666 2.261334-0.170667 2.218666-0.213333 2.261334-0.298667 2.176-0.384 2.218666-0.426667 2.176-0.554666 2.176-0.597334 2.176-0.682666 2.133334-0.768 2.133333-0.853334 2.005333-0.896 2.048-0.981333 2.048-1.024 1.962667-1.152 1.962667-1.194667 1.92-1.28 1.877333-1.322666 1.834667-1.408 1.792-1.493334 1.706666-1.536 1.706667-1.621333 1.706667-1.664 1.536-155.050667 141.781333 42.112 205.781333 0.426667 2.304 0.341333 2.261334 0.256 2.304 0.170667 2.261333 0.085333 2.304v2.261333l-0.085333 2.261334-0.128 2.261333-0.256 2.218667-0.298667 2.218666-0.426666 2.218667-0.469334 2.176-0.512 2.176-0.64 2.133333-0.682666 2.133334-0.768 2.133333-0.853334 2.048-0.938666 2.048-0.981334 2.005333-1.066666 1.962667-1.109334 1.92-1.194666 1.877333-1.28 1.877334-1.322667 1.792-1.408 1.792-1.493333 1.706666-1.536 1.706667-1.578667 1.578667-1.664 1.578666-1.749333 1.493334-1.792 1.493333-1.834667 1.365333-1.92 1.322667-1.92 1.28-1.962667 1.152-2.005333 1.109333-2.048 1.024-2.048 0.938667-2.090667 0.853333-2.133333 0.853334-2.133333 0.682666-2.176 0.597334-2.133334 0.554666-2.218666 0.512-2.176 0.426667-2.218667 0.298667-2.218667 0.213333-2.218666 0.170667-2.261334 0.085333h-4.437333l-2.261333-0.213333-2.218667-0.213334-2.218667-0.298666-2.218666-0.426667-2.218667-0.426667-2.176-0.554666-2.176-0.64-2.133333-0.725334-2.133334-0.768-2.133333-0.853333-2.090667-0.981333-2.090666-1.024-2.005334-1.109334L512 757.248l-182.741333 103.68-2.005334 1.066667-2.090666 1.024-2.090667 0.981333-2.133333 0.853333-2.133334 0.768-2.133333 0.725334-2.176 0.64-2.176 0.512-2.218667 0.469333-2.218666 0.426667-2.218667 0.298666-2.218667 0.213334-2.261333 0.170666-2.218667 0.042667h-2.218666l-2.261334-0.085333-2.218666-0.170667-2.218667-0.213333-2.218667-0.341334-2.176-0.384-2.218666-0.512-2.133334-0.554666-2.176-0.597334-2.133333-0.725333-2.133333-0.810667-2.090667-0.853333-2.048-0.938667-2.048-1.024-2.005333-1.109333-1.962667-1.152-1.92-1.28-1.92-1.28-1.834667-1.408-1.792-1.493333-1.749333-1.493334-1.664-1.578666-1.578667-1.621334-1.536-1.664-1.493333-1.706666-1.408-1.792-1.322667-1.792-1.28-1.877334-1.194666-1.877333-1.109334-1.92-1.066666-1.962667-0.981334-2.005333-0.938666-2.048-0.853334-2.090667-0.768-2.090666-0.682666-2.133334-0.64-2.133333-0.512-2.133333-0.469334-2.218667-0.426666-2.218667-0.298667-2.218666-0.256-2.218667-0.128-2.261333-0.085333-2.261334v-2.261333l0.085333-2.304 0.170667-2.261333 0.256-2.304 0.341333-2.261334 0.426667-2.304 42.112-205.781333-155.050667-141.781333-1.664-1.578667-1.621333-1.664-1.536-1.706667-1.493334-1.706666-1.408-1.792-1.322666-1.834667-1.28-1.877333-1.194667-1.92-1.152-1.962667-1.024-1.962667-0.981333-2.048-0.896-2.048-0.853334-2.048-0.768-2.133333-0.682666-2.090667-0.597334-2.133333-0.554666-2.218667-0.426667-2.133333-0.384-2.261333-0.298667-2.133334-0.213333-2.304-0.170667-2.218666-0.042666-2.261334v-2.261333l0.128-2.218667 0.170666-2.261333 0.256-2.261333 0.341334-2.261334 0.426666-2.261333 0.512-2.218667 0.597334-2.218666 0.64-2.218667 0.768-2.218667 0.853333-2.133333 0.896-2.133333 0.981333-2.048 1.024-2.005334 1.109334-2.005333 1.194666-1.92 1.237334-1.877333 1.322666-1.834667 1.365334-1.792 1.450666-1.706667 1.493334-1.664 1.536-1.621333 1.578666-1.578667 1.664-1.493333 1.706667-1.450667 1.749333-1.365333 1.834667-1.28 1.834667-1.28 1.877333-1.194667 1.962667-1.152 1.962666-1.066666 2.005334-0.981334 2.090666-0.853333 2.090667-0.853333 2.090667-0.810667 2.176-0.682667 2.176-0.64 2.261333-0.554666 2.218667-0.426667 2.304-0.384 2.261333-0.341333 208.768-23.552 86.912-191.232 0.981333-2.090667 1.066667-2.048 1.152-2.005333 1.194667-1.962667 1.28-1.877333 1.322666-1.834667 1.408-1.792 1.450667-1.706667 1.493333-1.706666 1.578667-1.578667 1.578667-1.578667 1.706666-1.493333 1.706667-1.450667 1.749333-1.365333 1.834667-1.28 1.834667-1.237333 1.92-1.194667 1.92-1.109333 1.962666-1.024 2.048-0.981334 2.048-0.853333 2.090667-0.853333 2.090667-0.768 2.176-0.682667 2.176-0.597333 2.176-0.554667 2.218666-0.426667 2.261334-0.384 2.261333-0.298666 2.304-0.213334 2.304-0.128h4.608z m-3.072 42.666667l-0.768 0.042667-0.725333 0.042666-0.725334 0.128-0.725333 0.128-0.725333 0.128-0.725334 0.170667-0.682666 0.213333-0.725334 0.213334-0.682666 0.213333-0.682667 0.298667-0.64 0.298666-0.682667 0.298667-0.64 0.341333-0.64 0.341334-0.597333 0.426666-0.597333 0.426667-0.597334 0.426667-0.597333 0.426666-0.554667 0.426667-0.554666 0.512-0.512 0.512-0.512 0.512-0.469334 0.554667-0.469333 0.554666-0.469333 0.554667-0.426667 0.597333-0.426667 0.64-0.384 0.597334-0.384 0.682666-0.341333 0.64-0.469333 1.066667-86.741334 190.890667-1.664 3.285333-1.962666 3.114667-2.176 2.986666-2.432 2.688-2.688 2.56-2.858667 2.261334-3.072 2.005333-3.2 1.749333-3.370667 1.493334-3.456 1.152-3.584 0.896-3.626666 0.554666-208.341334 23.509334-1.152 0.170666-0.768 0.128-0.725333 0.128-0.725333 0.170667-0.682667 0.213333-0.725333 0.213334-0.682667 0.256-0.682667 0.298666-0.64 0.256-0.682666 0.341334-0.64 0.341333-0.64 0.426667-0.597334 0.341333-0.597333 0.426667-0.597333 0.426666-0.554667 0.426667-0.597333 0.469333L151.722667 384l-0.512 0.469333-0.512 0.554667-0.512 0.554667-0.469334 0.554666-0.426666 0.554667-0.426667 0.597333-0.384 0.597334-0.384 0.64-0.384 0.64-0.341333 0.682666-0.298667 0.64-0.298667 0.682667-0.256 0.725333-0.256 0.725334-0.256 0.725333-0.170666 0.725333-0.170667 0.725334-0.128 0.725333-0.128 0.725333-0.085333 0.725334-0.042667 0.768-0.042667 0.725333v1.450667l0.085334 0.725333 0.042666 0.725333 0.128 0.725334 0.085334 0.725333 0.170666 0.682667 0.170667 0.725333 0.213333 0.682667 0.213334 0.725333 0.256 0.682667 0.256 0.682666 0.298666 0.64 0.298667 0.682667 0.341333 0.64 0.384 0.64 0.384 0.597333 0.426667 0.597334 0.426667 0.597333 0.469333 0.597333 0.469333 0.554667 0.512 0.554667 0.512 0.554666 0.853334 0.768 154.752 141.525334 2.602666 2.56 2.346667 2.816 2.133333 2.986666 1.834667 3.157334 1.578667 3.328 1.28 3.456 0.981333 3.498666 0.682667 3.626667 0.341333 3.669333 0.085333 3.626667-0.298666 3.669333-0.554667 3.626667-42.026667 205.44-0.213333 1.152-0.128 0.725333-0.085333 0.725334-0.042667 0.768-0.042667 0.725333v0.725333l0.042667 0.768 0.042667 0.725334 0.085333 0.725333 0.085333 0.725333 0.128 0.682667 0.170667 0.725333 0.170667 0.725334 0.213333 0.682666 0.213333 0.682667 0.256 0.682667 0.256 0.682666 0.298667 0.682667 0.341333 0.64 0.341334 0.64 0.384 0.64 0.384 0.597333 0.384 0.597334 0.469333 0.597333 0.426667 0.597333 0.469333 0.554667 0.512 0.512 0.512 0.554667 0.554667 0.512 0.554666 0.469333 0.597334 0.469333 0.597333 0.469334 0.64 0.426666 0.64 0.426667 0.64 0.426667 0.64 0.298666 0.64 0.341334 0.682667 0.298666 0.682666 0.298667 0.682667 0.256 0.682667 0.213333 0.725333 0.213334 0.682667 0.170666 0.725333 0.170667 0.725333 0.128 0.725334 0.085333 0.725333 0.085334 0.725333 0.085333h2.901334l0.725333-0.128 0.725333-0.128 0.725334-0.085333 0.682666-0.170667 0.725334-0.170667 0.725333-0.213333 0.682667-0.213333 0.682666-0.256 0.682667-0.298667 0.682667-0.298667 0.682666-0.341333 1.024-0.554667 182.4-103.466666 3.242667-1.664 3.413333-1.365334 3.498667-1.109333 3.584-0.768 3.626667-0.426667 3.669333-0.213333 3.669333 0.170667 3.626667 0.469333 3.584 0.768 3.498667 1.109333 3.413333 1.365334 3.242667 1.706666 182.4 103.424 1.024 0.554667 0.682666 0.341333 0.682667 0.298667 0.682667 0.298667 0.682666 0.256 0.682667 0.213333 0.725333 0.213333 0.725334 0.170667 0.682666 0.170667 0.725334 0.085333 0.725333 0.128 0.725333 0.085333 0.725334 0.042667H727.082667l0.725333-0.085333 0.725333-0.085334 0.725334-0.085333 0.725333-0.128 0.725333-0.170667 0.682667-0.170666 0.725333-0.213334 0.682667-0.213333 0.682667-0.256 0.682666-0.298667 0.682667-0.298666 0.64-0.341334 0.64-0.341333 0.64-0.384 0.64-0.426667 0.64-0.426666 0.597333-0.426667 0.597334-0.512 0.554666-0.426667 0.554667-0.554666 0.512-0.554667 0.512-0.512 0.469333-0.554667 0.426667-0.597333 0.469333-0.597333 0.384-0.597334 0.384-0.597333 0.384-0.64 0.341334-0.64 0.341333-0.64 0.298667-0.682667 0.256-0.682666 0.256-0.682667 0.213333-0.682667 0.213333-0.682666 0.170667-0.725334 0.170667-0.725333 0.128-0.682667 0.085333-0.725333 0.085333-0.725333 0.042667-0.725334 0.042667-0.768v-0.725333l-0.042667-0.725333-0.042667-0.768-0.085333-0.725334-0.128-0.725333-0.213333-1.152-42.026667-205.44-0.554667-3.626667-0.298666-3.669333 0.085333-3.626667 0.341333-3.669333 0.682667-3.626667 0.981333-3.498666 1.28-3.413334 1.578667-3.370666 1.834667-3.157334 2.133333-2.986666 2.346667-2.816 2.602666-2.56 154.752-141.525334 0.853334-0.768 0.512-0.554666 0.512-0.554667 0.469333-0.554667 0.469333-0.597333 0.426667-0.597333 0.426667-0.597334 0.384-0.597333 0.384-0.64 0.341333-0.64 0.298667-0.682667 0.298666-0.64 0.256-0.682666 0.256-0.682667 0.213334-0.725333 0.213333-0.682667 0.170667-0.725333 0.170666-0.682667 0.085334-0.725333 0.128-0.725334 0.042666-0.725333 0.085334-0.725333v-1.450667l-0.042667-0.725333-0.042667-0.768-0.085333-0.725334-0.128-0.725333-0.128-0.725333-0.170667-0.725334-0.170666-0.725333-0.256-0.725333-0.256-0.725334-0.256-0.725333-0.298667-0.682667-0.298667-0.64-0.341333-0.682666-0.384-0.64-0.384-0.64-0.384-0.597334-0.426667-0.597333-0.426666-0.554667-0.469334-0.554666-0.512-0.554667-0.512-0.554667-0.512-0.426666-0.512-0.554667-0.597333-0.426667-0.554667-0.512-0.597333-0.426666-0.597333-0.384-0.597334-0.384-0.64-0.384-0.64-0.341334-0.682666-0.341333-0.64-0.256-0.682667-0.298667-0.682667-0.256-0.725333-0.213333-0.682667-0.213333-0.725333-0.170667-0.725333-0.128-0.768-0.128-1.152-0.170667-208.341334-23.466666-3.626666-0.597334-3.584-0.853333-3.456-1.194667-3.370667-1.493333-3.2-1.706667-3.072-2.048-2.858667-2.304-2.688-2.517333-2.432-2.730667-2.176-2.944-1.962666-3.114666-1.664-3.285334-86.741334-190.890666-0.469333-1.066667-0.341333-0.64-0.384-0.64-0.384-0.64-0.426667-0.64-0.426667-0.597333-0.469333-0.554667-0.469333-0.554667-0.469334-0.554666-0.512-0.512-0.512-0.512-0.554666-0.512-0.554667-0.426667-0.597333-0.426667-0.597334-0.426666-0.597333-0.426667-0.597333-0.426667-0.64-0.341333-0.64-0.341333-0.682667-0.298667-0.64-0.298667-0.682667-0.298666-0.682666-0.213334-0.725334-0.213333-0.682666-0.213333-0.725334-0.170667-0.725333-0.128-0.725333-0.128-0.725334-0.128h-0.725333l-0.768-0.085333h-1.536z" fill="#00af2c" p-id="1007"></path></svg>