<?xml version="1.0" standalone="no"?><!DOCTYPE svg PUBLIC "-//W3C//DTD SVG 1.1//EN" "http://www.w3.org/Graphics/SVG/1.1/DTD/svg11.dtd"><svg t="1648021564665" class="icon" viewBox="0 0 1024 1024" version="1.1" xmlns="http://www.w3.org/2000/svg" p-id="2183" xmlns:xlink="http://www.w3.org/1999/xlink" width="200" height="200"><defs><style type="text/css"></style></defs><path d="M756.693333 165.802667c19.157333 0.981333 34.218667 16.213333 49.493334 31.445333 17.962667 18.005333 34.048 37.674667 44.330666 52.608 4.693333 6.826667 12.416 16.64 5.461334 27.776-6.912 11.136-26.88 13.696-48.64-12.501333a394.325333 394.325333 0 0 0-39.893334-41.088c-12.373333-11.008-29.952-19.413333-32.426666-33.109334a20.992 20.992 0 0 1 21.674666-25.130666z" fill="#00af2c" p-id="2184"></path><path d="M517.973333 84.352c60.458667 1.28 124.16 9.386667 174.848 40.192 21.12 12.8 13.397333 51.456-33.92 31.488-201.898667-81.92-460.202667 39.637333-518.570666 255.146667-59.946667 221.44 120.021333 476.544 356.778666 485.546666 256.426667 9.728 483.925333-283.093333 364.544-545.962666 0 0-4.138667-15.36 4.309334-23.893334 43.690667-44.032 106.112 153.429333 52.864 317.269334-63.786667 196.394667-284.842667 326.826667-487.722667 287.872-243.2-46.634667-412.330667-335.445333-317.056-576.810667 63.146667-160 226.901333-272.042667 403.925333-270.848z" fill="#00af2c" p-id="2185"></path><path d="M513.450667 234.752l1.450666 0.128 1.450667 0.256 1.365333 0.298667 1.450667 0.469333 1.322667 0.512 1.322666 0.682667 1.28 0.725333 1.194667 0.768 1.194667 0.853333 1.066666 0.981334 1.066667 1.024 0.938667 1.109333 0.853333 1.152 0.853333 1.194667 0.682667 1.28 0.597333 1.365333 0.597334 1.28 0.426666 1.408 0.341334 1.450667 0.256 1.408 0.128 1.450666 0.042666 1.493334v234.666666h236.117334l1.450666 0.170667 1.450667 0.256 1.365333 0.298667 1.450667 0.469333 1.322667 0.512 1.322666 0.682667 1.28 0.725333 1.194667 0.768 1.194667 0.853333 1.066666 0.981334 1.066667 1.024 0.938667 1.109333 0.853333 1.152 0.853333 1.194667 0.682667 1.28 0.597333 1.365333 0.597334 1.28 0.426666 1.408 0.341334 1.450667 0.256 1.408 0.128 1.450666 0.042666 1.493334v1.408l-0.170666 1.450666-0.256 1.450667-0.384 1.408-0.426667 1.408-0.554667 1.365333-0.597333 1.28-0.725333 1.28-0.810667 1.237334-0.853333 1.152-0.938667 1.109333-1.066667 1.024-1.066666 0.938667-1.194667 0.853333-1.237333 0.853333-1.237334 0.725334-1.28 0.597333-1.365333 0.512-1.450667 0.469333-1.365333 0.341334-1.450667 0.213333-1.450666 0.170667L768 533.333333h-277.333333V254.549333l0.170666-1.450666 0.256-1.408 0.384-1.450667 0.426667-1.365333 0.554667-1.322667 0.597333-1.365333 0.725333-1.28 0.810667-1.194667 0.853333-1.152 0.938667-1.109333 1.066667-1.024 1.066666-0.981334 1.194667-0.853333 1.237333-0.768 1.237334-0.725333 1.28-0.682667 1.365333-0.512 1.450667-0.426667 1.365333-0.341333 1.450667-0.256 1.450666-0.128L512 234.666667l1.450667 0.085333z" fill="#00af2c" p-id="2186"></path></svg>