<svg xmlns="http://www.w3.org/2000/svg" width="48" height="48" viewBox="0 0 48 48"><path fill="#455A64" d="M32,6h-8c0,1.104-1,3-3,3s-3-1.896-3-3h-8c-2.209,0-4,1.791-4,4v30c0,2.209,1.791,4,4,4h22c2.209,0,4-1.791,4-4V10C36,7.791,34.209,6,32,6"/><path fill="#FFF" d="M32,41H10c-0.552,0-1-0.448-1-1V10c0-0.552,0.448-1,1-1h22c0.552,0,1,0.448,1,1v30C33,40.552,32.552,41,32,41z"/><path fill="#90A4AE" d="M23,6c0,1.105-0.895,2-2,2s-2-0.895-2-2h-7v4c0,1.105,0.895,2,2,2h14c1.105,0,2-0.895,2-2V6H23z"/><path fill="#90A4AE" d="M21,2c-2.206,0-4,1.794-4,4s1.794,4,4,4s4-1.794,4-4S23.206,2,21,2 M21,8c-1.103,0-2-0.896-2-2s0.897-2,2-2s2,0.896,2,2S22.103,8,21,8"/><path fill="#90CAF9" d="M17 17H42V47H17z"/><g><path fill="#1976D2" d="M21 37H33V39H21zM21 33H38V35H21zM21 29H33V31H21zM21 25H38V27H21z"/></g></svg>