<?xml version="1.0" standalone="no"?><!DOCTYPE svg PUBLIC "-//W3C//DTD SVG 1.1//EN" "http://www.w3.org/Graphics/SVG/1.1/DTD/svg11.dtd"><svg t="1648021812444" class="icon" viewBox="0 0 1024 1024" version="1.1" xmlns="http://www.w3.org/2000/svg" p-id="2616" xmlns:xlink="http://www.w3.org/1999/xlink" width="200" height="200"><defs><style type="text/css"></style></defs><path d="M515.285333 384.042667l3.285334 0.128 3.285333 0.213333 3.242667 0.256 3.2 0.426667 3.2 0.426666 3.157333 0.512 3.114667 0.597334 3.114666 0.682666 3.072 0.725334 3.072 0.853333 2.986667 0.853333 2.986667 1.024 2.986666 1.024 2.944 1.109334 2.858667 1.194666 2.858667 1.28 2.816 1.28 2.773333 1.365334 2.773333 1.450666 2.688 1.536 2.645334 1.578667 2.602666 1.621333 2.56 1.706667 2.56 1.706667 2.517334 1.834666 2.432 1.877334 2.389333 1.92 2.346667 2.005333 2.304 2.048 2.218666 2.090667 2.218667 2.133333 2.133333 2.176 2.133334 2.261333 2.005333 2.304 2.005333 2.346667 1.92 2.389333 1.877334 2.474667 1.792 2.474667 1.749333 2.56 1.706667 2.56 1.621333 2.602666 1.578667 2.645334 1.536 2.688 1.450666 2.773333 1.365334 2.773333 1.28 2.816 1.28 2.858667 1.194666 2.858667 1.109334 2.986666 1.024 2.901334 0.981333 2.986666 0.896 3.029334 0.853333 3.029333 0.725334 3.114667 0.682666 3.114666 0.597334 3.114667 0.554666 3.157333 0.426667 3.2 0.341333 3.242667 0.298667 3.2 0.213333 3.285333 0.128 3.242667L640 512v3.285333l-0.170667 3.285334-0.213333 3.285333-0.298667 3.2-0.341333 3.242667-0.426667 3.157333-0.554666 3.2-0.597334 3.114667-0.682666 3.114666-0.725334 3.072-0.853333 3.072-0.896 2.986667-0.981333 2.986667-1.024 2.986666-1.109334 2.944-1.194666 2.858667-1.28 2.858667-1.28 2.816-1.365334 2.773333-1.450666 2.730667-1.536 2.730666-1.578667 2.645334-1.621333 2.645333-1.706667 2.56-1.706667 2.56-1.834666 2.432-1.877334 2.474667-1.92 2.389333-2.005333 2.346667-2.048 2.304-2.090667 2.218666-2.133333 2.218667-2.218667 2.133333-2.218666 2.133334-2.304 2.005333-2.346667 2.005333-2.389333 1.92-2.432 1.877334-2.517334 1.792-2.56 1.749333-2.56 1.706667-2.56 1.621333-2.688 1.578667-2.688 1.536-2.773333 1.450666-2.773333 1.365334-2.816 1.28-2.858667 1.28-2.858667 1.194666-2.944 1.109334-2.986666 1.024-2.986667 0.981333-2.986667 0.896-3.072 0.853333-3.072 0.725334-3.114666 0.682666-3.114667 0.597334-3.157333 0.512-3.2 0.426666-3.2 0.426667-3.242667 0.256-3.285333 0.213333-3.285334 0.128h-6.570666l-3.285334-0.128-3.285333-0.213333-3.242667-0.256-3.2-0.426667-3.2-0.426666-3.157333-0.512-3.114667-0.597334-3.114666-0.682666-3.072-0.768-3.072-0.810667-2.986667-0.853333-2.986667-1.024-2.986666-1.024-2.901334-1.109334-2.901333-1.194666-2.858667-1.28-2.816-1.28-2.773333-1.365334-2.730667-1.450666-2.730666-1.536-2.645334-1.578667-2.602666-1.621333-2.56-1.706667-2.56-1.706667-2.517334-1.834666-2.432-1.877334-2.389333-1.92-2.346667-2.005333-2.304-2.048-2.218666-2.090667-2.218667-2.133333-2.133333-2.218667-2.133334-2.218666-2.005333-2.304-1.962667-2.346667-1.962666-2.389333-1.877334-2.474667-1.792-2.474667-1.749333-2.56-1.706667-2.56-1.621333-2.56-1.578667-2.688-1.536-2.730666-1.408-2.730667-1.408-2.773333-1.28-2.816-1.28-2.858667-1.194666-2.858667-1.109334-2.944-1.024-2.986666-0.981333-2.986667-0.896-2.986667-0.853333-3.072-0.725334-3.072-0.682666-3.114666-0.597334-3.114667-0.512-3.2-0.469333-3.157333-0.341333-3.242667-0.298667-3.2-0.213333-3.285333L384 515.285333 384 512v-3.328l0.170667-3.242667 0.213333-3.285333 0.298667-3.2 0.341333-3.242667 0.426667-3.2 0.554666-3.157333 0.597334-3.114667 0.682666-3.114666 0.768-3.114667 0.810667-2.986667 0.896-3.072 0.981333-2.986666 1.024-2.944 1.109334-2.944 1.194666-2.858667 1.28-2.858667 1.28-2.816 1.408-2.773333 1.408-2.773333 1.536-2.688 1.578667-2.645334 1.621333-2.645333 1.706667-2.56 1.706667-2.56 1.834666-2.432 1.877334-2.474667 1.962666-2.389333 1.962667-2.346667 2.048-2.304 2.090667-2.261333 2.133333-2.133333 2.218667-2.176 2.218666-2.133334 2.304-2.005333 2.346667-2.005333 2.389333-1.92 2.432-1.877334 2.517334-1.792 2.56-1.749333 2.56-1.706667 2.56-1.621333 2.688-1.578667 2.730666-1.536 2.730667-1.450666 2.773333-1.365334 2.816-1.28 2.858667-1.28 2.901333-1.194666 2.901334-1.109334 2.986666-1.024 2.986667-0.981333 2.986667-0.896 3.072-0.853333 3.072-0.725334 3.114666-0.682666 3.114667-0.597334 3.157333-0.512 3.2-0.426666 3.2-0.426667 3.242667-0.256 3.285333-0.213333 3.285334-0.128L512 384l3.285333 0.042667z m-5.504 42.666666l-2.218666 0.085334-2.133334 0.128-2.218666 0.213333-2.133334 0.213333-2.133333 0.298667-2.090667 0.341333-2.090666 0.426667-2.048 0.426667-2.048 0.512-2.048 0.554666-2.005334 0.597334-1.962666 0.64-1.962667 0.682666-1.962667 0.725334-1.92 0.810666-1.877333 0.853334-1.877333 0.853333-1.834667 0.896-1.834667 0.981333-1.792 1.024-1.792 1.024-1.706666 1.109334-1.706667 1.109333-1.706667 1.194667-1.706666 1.194666-1.621334 1.28-1.578666 1.28-1.578667 1.28-1.536 1.408-1.493333 1.408-1.493334 1.408-1.408 1.493334-1.408 1.493333-1.365333 1.536-1.322667 1.578667-1.28 1.578666-1.28 1.664-1.194666 1.621334-1.194667 1.706666-1.109333 1.706667-1.109334 1.749333-1.024 1.792-1.024 1.792-0.981333 1.834667-0.896 1.834667-0.853333 1.877333-0.853334 1.92-0.768 1.92-0.768 1.92-0.682666 1.962667-0.64 2.005333-0.597334 2.005333-0.554666 2.005334-0.512 2.048-0.426667 2.048-0.426667 2.133333-0.341333 2.048-0.298667 2.133333-0.256 2.133334-0.170666 2.176-0.128 2.176-0.085334 2.218666v4.437334l0.085334 2.218666 0.128 2.133334 0.170666 2.176 0.256 2.133333 0.298667 2.133333 0.341333 2.133334 0.426667 2.090666 0.426667 2.048 0.512 2.048 0.554666 2.005334 0.597334 2.005333 0.64 2.005333 0.682666 1.962667 0.768 1.92 0.768 1.92 0.853334 1.92 0.853333 1.877333 0.896 1.834667 0.981333 1.834667 1.024 1.792 1.024 1.792 1.109334 1.706666 1.109333 1.706667 1.194667 1.706667 1.194666 1.706666 1.28 1.621334 1.28 1.578666 1.28 1.578667 1.408 1.536 1.408 1.493333 1.408 1.493334 1.493334 1.408 1.493333 1.408 1.536 1.365333 1.578667 1.322667 1.578666 1.28 1.664 1.28 1.664 1.194666 1.706667 1.194667 1.706667 1.109333 1.706666 1.109334 1.792 1.024 1.792 1.024 1.834667 0.981333 1.834667 0.896 1.877333 0.853333 1.877333 0.853334 1.92 0.768 1.962667 0.768 1.962667 0.682666 1.962666 0.64 2.048 0.597334 2.005334 0.554666 2.048 0.512 2.048 0.426667 2.133333 0.426667 2.090667 0.341333 2.133333 0.298667 2.133333 0.213333 2.133334 0.213333 2.176 0.128 2.218666 0.085334L512 597.333333h2.218667l2.176-0.128 2.218666-0.128 2.133334-0.213333 2.133333-0.213333 2.133333-0.298667 2.133334-0.341333 2.048-0.426667 2.133333-0.426667 2.005333-0.512 2.005334-0.554666 2.048-0.597334 1.962666-0.64 1.962667-0.682666 1.962667-0.768 1.92-0.768 1.877333-0.853334 1.877333-0.853333 1.834667-0.896 1.834667-0.981333 1.792-1.024 1.792-1.024 1.706666-1.109334 1.706667-1.109333 1.706667-1.194667 1.706666-1.194666 1.621334-1.28 1.578666-1.28 1.578667-1.28 1.536-1.408 1.493333-1.408 1.493334-1.408 1.408-1.493334 1.408-1.493333 1.365333-1.536 1.322667-1.578667 1.28-1.578666 1.28-1.664 1.194666-1.664 1.194667-1.706667 1.109333-1.706667 1.109334-1.706666 1.024-1.792 1.024-1.792 0.981333-1.834667 0.896-1.834667 0.853333-1.877333 0.853334-1.92 0.768-1.92 0.768-1.92 0.682666-1.962667 0.64-2.005333 0.597334-2.005333 0.554666-2.005334 0.512-2.048 0.426667-2.048 0.426667-2.133333 0.341333-2.090667 0.298667-2.133333 0.256-2.133333 0.170666-2.133334 0.128-2.176 0.085334-2.218666v-4.437334l-0.085334-2.218666-0.128-2.133334-0.170666-2.176-0.256-2.133333-0.298667-2.133333-0.341333-2.133334-0.426667-2.090666-0.426667-2.048-0.512-2.048-0.554666-2.005334-0.597334-2.005333-0.64-2.005333-0.682666-1.962667-0.768-1.92-0.768-1.92-0.853334-1.92-0.853333-1.877333-0.896-1.834667-0.981333-1.834667-1.024-1.792-1.024-1.792-1.109334-1.706666-1.109333-1.749334-1.194667-1.706666-1.194666-1.621334-1.28-1.664-1.28-1.578666-1.28-1.578667-1.408-1.536-1.408-1.493333-1.408-1.493334-1.493334-1.408-1.493333-1.408-1.536-1.365333-1.578667-1.322667-1.578666-1.28-1.664-1.28-1.664-1.194666-1.706667-1.194667-1.706667-1.109333-1.706666-1.109334-1.792-1.024-1.792-1.024-1.834667-0.981333-1.834667-0.896-1.877333-0.853333-1.877333-0.853334-1.92-0.810666-1.962667-0.725334-1.962667-0.682666-1.962666-0.64-2.048-0.597334-2.005334-0.554666-2.048-0.512-2.048-0.426667-2.133333-0.426667-2.090667-0.341333-2.133333-0.298667-2.133333-0.213333-2.133334-0.213333-2.218666-0.128-2.176-0.085334h-4.437334z" fill="#00af2c" p-id="2617"></path><path d="M518.314667 85.376l6.314666 0.128 6.272 0.256 6.229334 0.298667 6.229333 0.426666 6.229333 0.469334 6.144 0.597333 6.186667 0.682667 1.834667 0.256 1.877333 0.341333 1.792 0.426667 1.792 0.512 1.706667 0.597333 1.706666 0.682667 1.664 0.725333 1.621334 0.853333 1.578666 0.853334 1.536 0.938666 1.450667 1.024 1.450667 1.066667 1.365333 1.152 1.322667 1.194667 1.28 1.28 1.194666 1.28 1.152 1.322666 1.109334 1.408 1.024 1.493334 0.981333 1.493333 0.896 1.536 0.810667 1.578667 0.768 1.706666 0.682666 1.621334 0.597334 1.706666 0.554666 1.706667 0.469334 1.792 0.384 1.792 0.298666 1.792 0.213334 1.877333 0.128 1.834667 0.042666 1.92H597.333333l0.042667 3.285333 0.128 3.285334 0.213333 3.285333 0.298667 3.2 0.341333 3.242667 0.469334 3.157333 0.512 3.2 0.597333 3.114667 0.682667 3.114666 0.768 3.072 0.810666 3.072 0.896 3.029334 0.981334 2.986666 1.024 2.986667 1.109333 2.858667 1.194667 2.901333 1.237333 2.858667 1.322667 2.816 1.365333 2.773333 1.450667 2.730667 1.536 2.730666 1.578666 2.645334 1.621334 2.602666 1.706666 2.602667 1.749334 2.56 1.792 2.432 1.877333 2.474667 1.92 2.389333 2.005333 2.346667 2.048 2.304 2.090667 2.218666 2.133333 2.218667 2.218667 2.133333 2.218667 2.133334 2.304 2.005333 2.346666 1.962667 2.389334 1.962666 2.474666 1.877334 2.474667 1.792 2.517333 1.749333 2.602667 1.706667 2.602667 1.621333 2.645333 1.578667 2.730667 1.536 2.730666 1.408 2.773334 1.408 2.816 1.322666 2.858666 1.28 2.858667 1.152 2.944 1.109334 2.944 1.024 2.986667 0.981333 3.029333 0.896 3.072 0.853333 3.072 0.725334 3.114667 0.682666 3.114666 0.597334 3.157334 0.512 3.2 0.469333 3.2 0.341333 3.242666 0.298667 3.285334 0.213333 3.285333 0.128L725.333333 256h3.626667l3.626667-0.213333 3.584-0.256 3.584-0.341334 3.541333-0.426666 3.498667-0.554667 3.456-0.64 3.456-0.725333 3.370666-0.810667 3.370667-0.938667 3.328-0.981333 3.285333-1.109333 3.285334-1.152 3.2-1.237334 3.157333-1.365333 3.114667-1.408 2.517333-1.152 2.56-1.024 2.56-0.853333 2.56-0.810667 2.602667-0.682667 2.645333-0.554666 2.602667-0.426667 2.645333-0.298667 2.645333-0.213333 2.602667-0.085333 2.645333 0.042666 2.602667 0.128 2.645333 0.256 2.56 0.341334 2.602667 0.469333 2.517333 0.554667 2.56 0.682666 2.474667 0.853334 2.474667 0.853333 2.389333 0.981333 2.389333 1.109334 2.346667 1.194666 2.304 1.28 2.218667 1.408 2.176 1.493334 2.133333 1.621333 2.048 1.706667 2.005333 1.792 1.92 1.877333 1.877334 2.005333 1.749333 2.133334 1.706667 2.133333 2.773333 3.413333 2.730667 3.413334 2.688 3.456 2.56 3.498666 2.56 3.584 2.474666 3.584 2.432 3.669334 2.346667 3.669333 2.346667 3.712 2.261333 3.754667 2.218667 3.84 2.176 3.84 2.090666 3.84 2.090667 3.84 2.048 3.925333 1.962667 3.925333 0.64 1.365334 0.64 1.365333 0.554666 1.365333 0.554667 1.365334 0.512 1.408 0.469333 1.408 0.426667 1.408 0.426667 1.408 0.341333 1.408 0.341333 1.408 0.298667 1.408 0.298667 1.450666 0.213333 1.408 0.213333 1.408 0.170667 1.450667 0.128 1.408 0.128 1.450667 0.042667 1.408 0.042666 1.450666v2.858667l-0.085333 1.408-0.170667 2.816-0.341333 2.816-0.469333 2.816-0.597334 2.773333-0.682666 2.730667-0.853334 2.688-0.938666 2.688-1.066667 2.645333-1.194667 2.56-1.28 2.56-0.682666 1.194667-0.725334 1.28-0.768 1.194667-0.768 1.194666-0.810666 1.152-0.810667 1.194667-0.896 1.109333-0.853333 1.152-0.938667 1.109334-0.938667 1.109333-0.981333 1.066667-0.981333 1.024-1.024 1.066666-1.066667 0.981334-1.066667 1.024-1.109333 0.938666-1.152 0.981334-1.152 0.896-1.194667 0.896-1.194666 0.896-1.237334 0.853333-1.28 0.853333-3.328 2.176-3.285333 2.261334-3.2 2.432-3.114667 2.474666-3.072 2.602667-2.986666 2.645333-2.858667 2.773334-2.816 2.858666-2.688 2.986667-2.645333 2.986667-2.517334 3.072-2.432 3.2-2.346666 3.242666-2.261334 3.328-2.133333 3.413334-2.005333 3.456-1.962667 3.541333-1.792 3.584-1.706667 3.669333-0.810666 1.877334-0.810667 1.834666-0.725333 1.92-0.725334 1.877334-0.725333 1.92-0.64 1.92-0.64 1.962666-0.64 1.92-0.554667 1.962667-0.554666 2.005333-0.512 2.005334-0.512 2.005333-0.426667 2.005333-0.426667 2.005334-0.384 2.048-0.384 2.048-0.298666 2.133333-0.298667 2.005333-0.256 2.133334-0.213333 2.048-0.213334 2.133333-0.128 2.133333-0.128 2.048-0.085333 2.133334-0.085333 2.176v4.266666l0.085333 2.133334 0.085333 2.133333 0.128 2.133333 0.128 2.133334 0.213334 2.133333 0.213333 2.048 0.256 2.133333 0.298667 2.005334 0.298666 2.133333 0.384 2.005333 0.384 2.005334 0.426667 2.048 0.469333 2.005333 0.469334 2.005333 0.512 2.005334 0.554666 1.962666 0.554667 1.962667 0.64 1.962667 0.64 1.92 0.64 1.962666 0.725333 1.877334 0.725334 1.92 0.768 1.877333 0.768 1.877333 0.810666 1.834667 0.853334 1.834667 0.853333 1.834666 1.834667 3.584 1.92 3.541334 2.048 3.456 2.133333 3.413333 2.261333 3.285333 2.346667 3.242667 2.432 3.157333 2.56 3.072 2.645333 3.029334 2.688 2.901333 2.816 2.858667 2.901334 2.730666 2.986666 2.645334 3.072 2.56 3.157334 2.474666 3.2 2.389334 3.328 2.261333 3.370666 2.176 1.237334 0.853333 1.28 0.853334 1.194666 0.853333 1.194667 0.896 1.152 0.938667 1.152 0.938666 1.109333 0.981334 1.109334 0.981333 1.024 1.024 1.066666 1.066667 0.981334 1.024 0.981333 1.109333 0.938667 1.109333 0.938666 1.109334 0.896 1.109333 0.853334 1.152 0.853333 1.194667 0.810667 1.194666 0.768 1.194667 0.768 1.28 0.725333 1.194667 0.682667 1.28 0.682666 1.28 0.64 1.28 1.194667 2.56 1.066667 2.602666 0.938666 2.688 0.853334 2.730667 0.725333 2.773333 0.554667 2.773334 0.469333 2.816 0.341333 2.816 0.128 1.450666 0.085334 1.408 0.042666 1.450667 0.042667 1.408v1.450667l-0.042667 1.450666-0.085333 1.408-0.085333 1.450667-0.170667 1.450667-0.170667 1.408-0.170666 1.450666-0.256 1.450667-0.256 1.408-0.341334 1.450667-0.298666 1.408-0.384 1.450666-0.426667 1.408-0.426667 1.408-0.469333 1.408-0.512 1.408-0.554667 1.365334-0.597333 1.408-0.597333 1.365333-0.64 1.365333-2.048 3.925334-2.090667 3.882666-2.133333 3.84-2.133334 3.84-2.218666 3.84-2.176 3.84-2.261334 3.712-2.304 3.754667-2.304 3.712-2.346666 3.712-2.389334 3.712-2.389333 3.626667-2.432 3.626666-2.517333 3.626667-2.517334 3.584-2.56 3.541333-1.706666 2.261334-1.834667 2.133333-1.92 2.048-1.962667 1.92-2.048 1.877333-2.133333 1.749334-2.176 1.621333-2.218667 1.536-2.304 1.450667-2.346666 1.365333-2.432 1.28-2.432 1.066667-2.474667 1.024-2.517333 0.896-2.602667 0.853333-2.56 0.682667-2.645333 0.597333-2.645334 0.469333-2.645333 0.341334-2.688 0.256-2.688 0.170666h-2.688l-2.730667-0.085333-2.688-0.213333-2.688-0.298667-2.730666-0.426667-2.688-0.597333-2.645334-0.682667-2.645333-0.810666-2.645333-0.853334-2.602667-1.109333-2.602667-1.152-1.493333-0.853333-1.493333-0.853334-1.536-0.810666-1.536-0.768-3.114667-1.450667-3.157333-1.365333-3.2-1.237334-3.285334-1.109333-3.328-1.024-3.370666-0.853333-3.370667-0.810667-3.456-0.682667-3.498667-0.597333-3.541333-0.426667-3.541333-0.384-3.584-0.256-3.626667-0.170666h-6.912l-3.285333 0.128-3.285334 0.213333-3.242666 0.256-3.2 0.426667-3.2 0.426666-3.157334 0.512-3.114666 0.597334-3.114667 0.682666-3.072 0.725334-3.072 0.853333-3.029333 0.896-2.986667 0.981333-2.944 1.024-2.944 1.109334-2.858667 1.194666-2.858666 1.28-2.816 1.28-2.773334 1.365334-2.730666 1.450666-2.730667 1.536-2.645333 1.536-2.602667 1.706667-2.602667 1.706667-2.517333 1.706666-2.474667 1.792-2.474666 1.877334-2.389334 1.92-2.346666 2.005333-2.304 2.048-2.218667 2.133333-2.218667 2.133334-2.133333 2.133333-2.090667 2.261333-2.048 2.304-2.005333 2.346667-1.92 2.389333-1.877333 2.432-1.792 2.56-1.749334 2.474667-1.706666 2.56-1.621334 2.645333-1.578666 2.645334-1.536 2.688-1.450667 2.773333-1.365333 2.773333-1.322667 2.816-1.237333 2.858667-1.194667 2.858667-1.109333 2.986666-1.024 2.901334-0.981334 2.986666-0.896 3.029334-0.810666 3.029333-0.768 3.114667-0.682667 3.114666-0.597333 3.114667-0.512 3.157333-0.469334 3.2-0.341333 3.2-0.298667 3.242667-0.213333 3.285333-0.128 3.242667L597.333333 896l-0.042666 1.877333-0.128 1.877334-0.213334 1.877333-0.298666 1.834667-0.384 1.792-0.469334 1.792-0.554666 1.706666-0.597334 1.706667-0.682666 1.706667-0.768 1.621333-0.810667 1.578667-0.938667 1.578666-0.938666 1.493334-1.024 1.450666-1.109334 1.408-1.152 1.365334-1.237333 1.322666-1.28 1.28-1.322667 1.152-1.365333 1.152-1.450667 1.066667-1.493333 1.024-1.493333 0.981333-1.578667 0.853334-1.664 0.853333-1.664 0.725333-1.706667 0.64-1.706666 0.597334-1.792 0.512-1.834667 0.426666-1.834667 0.426667-1.877333 0.213333-6.144 0.64-6.186667 0.554667-6.229333 0.469333-6.229333 0.426667-6.229334 0.256-6.272 0.256-6.314666 0.128L512 938.666667h-6.314667l-6.314666-0.170667-6.272-0.256-6.229334-0.298667-6.229333-0.426666-6.229333-0.426667-6.144-0.64-6.186667-0.682667-1.834667-0.256-1.877333-0.341333-1.792-0.426667-1.792-0.554666-1.706667-0.597334-1.706666-0.64-1.664-0.768-1.621334-0.810666-1.578666-0.853334-1.536-0.938666-1.450667-1.024-1.450667-1.066667-1.365333-1.152-1.322667-1.194667-1.28-1.237333-1.194666-1.28-1.152-1.408-1.109334-1.408-1.024-1.450667-0.981333-1.493333-0.896-1.536-0.810667-1.621333-0.768-1.621334-0.682666-1.664-0.597334-1.706666-0.554666-1.706667-0.469334-1.792-0.384-1.792-0.298666-1.834667-0.213334-1.834666-0.128-1.877334-0.042666-1.877333H426.666667l-0.042667-3.328-0.128-3.242667-0.213333-3.285333-0.298667-3.242667-0.341333-3.2-0.469334-3.2-0.512-3.157333-0.597333-3.114667-0.682667-3.114666-0.768-3.114667-0.810666-2.986667-0.896-3.072-0.981334-2.986666-1.024-2.944-1.109333-2.944-1.194667-2.858667-1.237333-2.858667-1.322667-2.816-1.365333-2.773333-1.450667-2.773333-1.536-2.688-1.578666-2.645334-1.621334-2.645333-1.706666-2.56-1.749334-2.517333-1.792-2.517334-1.877333-2.432-1.92-2.389333-2.005333-2.346667-2.048-2.304-2.090667-2.261333-2.133333-2.133333-2.218667-2.133334-2.218667-2.133333-2.304-2.048-2.346666-2.005333-2.389334-1.92-2.474666-1.877334-2.474667-1.792-2.517333-1.706666-2.602667-1.706667-2.602667-1.706667-2.645333-1.536-2.730667-1.536-2.730666-1.450666-2.773334-1.365334-2.816-1.28-2.858666-1.28-2.858667-1.194666-2.944-1.109334-2.944-1.024-2.986667-0.981333-3.029333-0.853333-3.072-0.853334-3.072-0.768-3.114667-0.682666-3.114666-0.597334-3.157334-0.554666-3.2-0.426667-3.2-0.384-3.242666-0.256-3.285334-0.213333-3.285333-0.128h-6.912l-3.626667 0.170666-3.584 0.256-3.584 0.341334-3.541333 0.426666-3.498667 0.554667-3.456 0.64-3.456 0.725333-3.370666 0.853334-3.370667 0.853333-3.328 1.024-3.285333 1.066667-3.285334 1.194666-3.2 1.28-3.157333 1.322667-3.114667 1.408-2.517333 1.152-2.56 1.024-2.56 0.896-2.56 0.768-2.602667 0.682667-2.645333 0.512-2.602667 0.469333-2.645333 0.298667-2.645333 0.213333-2.602667 0.085333h-2.645333l-2.602667-0.170666-2.645333-0.256-2.56-0.341334-2.602667-0.426666-2.517333-0.597334-2.56-0.682666-2.474667-0.810667-2.474667-0.853333-2.389333-1.024-2.389333-1.109334-2.346667-1.194666-2.304-1.28-2.218667-1.408-2.176-1.536-2.133333-1.578667-2.048-1.706667-2.005333-1.792-1.92-1.92-1.877334-1.962666-1.749333-2.090667-1.706667-2.133333-2.773333-3.413334-2.730667-3.413333-2.688-3.498667-2.56-3.541333-2.56-3.541333-2.474666-3.626667-2.432-3.626667-2.346667-3.669333-2.346667-3.754667-2.261333-3.754666-2.218667-3.754667-2.176-3.84-2.090666-3.84-2.090667-3.84-2.048-3.968-1.962667-3.925333-0.64-1.365334-0.64-1.365333-0.554666-1.365333-0.554667-1.408-0.512-1.365334-0.469333-1.408-0.426667-1.408-0.426667-1.408-0.341333-1.408-0.341333-1.408-0.298667-1.450666-0.298667-1.408-0.213333-1.408-0.213333-1.450667-0.170667-1.408-0.128-1.450667-0.128-1.408-0.042667-1.450666-0.042666-1.408v-2.858667l0.085333-1.408 0.170667-2.858667 0.341333-2.816 0.469333-2.773333 0.597334-2.773333 0.682666-2.730667 0.853334-2.730667 0.938666-2.645333 1.066667-2.645333 1.194667-2.56 1.28-2.517334 0.682666-1.28 0.725334-1.194666 0.768-1.237334 0.768-1.194666 0.810666-1.194667 0.810667-1.152 0.896-1.152 0.853333-1.109333 0.938667-1.109334 0.938667-1.109333 0.981333-1.066667 0.981333-1.066666 1.024-1.024 1.066667-1.024 1.066667-0.981334 1.109333-0.981333 1.152-0.938667 1.152-0.853333 1.194667-0.938667 1.194666-0.853333 1.237334-0.853333 1.28-0.853334 3.328-2.218666 3.285333-2.304 3.2-2.389334 3.114667-2.474666 3.072-2.56 2.986666-2.730667 2.858667-2.773333 2.816-2.816 2.688-2.944 2.645333-2.986667 2.517334-3.157333 2.432-3.157334 2.346666-3.242666 2.261334-3.328 2.133333-3.413334 2.005333-3.413333 1.962667-3.584 1.792-3.626667 1.706667-3.626666 0.810666-1.877334 0.810667-1.877333 0.725333-1.877333 0.725334-1.877334 0.725333-1.92 0.64-1.92 0.64-1.962666 0.64-1.962667 0.554667-1.962667 0.554666-1.962666 0.512-2.005334 0.512-2.005333 0.426667-2.005333 0.426667-2.048 0.384-2.005334 0.384-2.048 0.298666-2.090666 0.298667-2.048 0.256-2.090667 0.213333-2.090667 0.213334-2.090666 0.128-2.133334 0.128-2.133333 0.085333-2.133333 0.085333-2.133334v-4.266666l-0.085333-2.133334-0.085333-2.133333-0.128-2.133333-0.128-2.133334-0.213334-2.090666-0.213333-2.090667-0.256-2.090667-0.298667-2.048-0.298666-2.090666-0.384-2.048-0.384-2.048-0.426667-2.005334-0.469333-2.005333-0.469334-2.005333-0.512-2.005334-0.554666-1.962666-0.554667-1.962667-0.64-1.962667-0.64-1.962666-0.64-1.92-0.725333-1.92-0.725334-1.877334-0.768-1.877333-0.768-1.877333-0.810666-1.834667-0.853334-1.834667-0.853333-1.834666-1.834667-3.584-1.92-3.541334-2.048-3.413333-2.133333-3.413333-2.261333-3.328-2.346667-3.242667-2.432-3.157333-2.56-3.114667-2.645333-2.986667-2.688-2.944-2.816-2.816-2.901334-2.730666-2.986666-2.688-3.072-2.56-3.157334-2.432-3.2-2.389334-3.328-2.261333-3.370666-2.133333-1.237334-0.853334-1.28-0.853333-1.194666-0.853333-1.194667-0.938667-1.152-0.938667-1.152-0.938666-1.109333-0.981334-1.109334-1.024-1.024-1.024-1.066666-1.024-0.981334-1.066666-0.981333-1.066667-0.938667-1.109333-0.938666-1.109334-0.896-1.152-0.853334-1.152-0.853333-1.152-0.810667-1.194666-0.768-1.194667-0.768-1.237333-0.725333-1.237334-0.682667-1.237333-0.682666-1.28-0.64-1.28-1.194667-2.56-1.066667-2.688-0.938666-2.688-0.853334-2.688-0.725333-2.773333-0.554667-2.773334-0.469333-2.816-0.341333-2.858666-0.128-1.408-0.085334-1.450667-0.042666-1.408-0.042667-1.450667v-1.408l0.042667-1.450666 0.085333-1.450667 0.085333-1.408 0.170667-1.450667 0.170667-1.450666 0.170666-1.408 0.256-1.450667 0.256-1.450667 0.341334-1.408 0.298666-1.408 0.384-1.450666 0.426667-1.408 0.426667-1.408 0.469333-1.408 0.512-1.408 0.554667-1.408 0.597333-1.365334 0.597333-1.365333 0.64-1.365333 2.048-3.925334 2.090667-3.84 2.133333-3.84 2.133334-3.84 2.218666-3.84 2.176-3.84 2.261334-3.754666 2.304-3.754667 2.304-3.754667 2.346666-3.712 2.389334-3.669333 2.389333-3.669333 2.432-3.626667 2.517333-3.584 2.517334-3.584 2.56-3.541333 1.706666-2.261334 1.834667-2.133333 1.92-2.048 1.962667-1.962667 2.048-1.834666 2.133333-1.706667 2.176-1.706667 2.218667-1.536 2.304-1.450666 2.346666-1.28 2.432-1.28 2.432-1.109334 2.474667-1.024 2.517333-0.938666 2.602667-0.810667 2.56-0.682667 2.645333-0.597333 2.645334-0.426667 2.645333-0.426666 2.688-0.256 2.688-0.128h2.688l2.730667 0.085333 2.688 0.170667 2.688 0.341333 2.730666 0.426667 2.688 0.597333 2.645334 0.682667 2.645333 0.768 2.645333 0.938666 2.602667 1.024 2.602667 1.194667 1.493333 0.853333 1.493333 0.853334 1.536 0.768 1.536 0.768 3.114667 1.493333 3.157333 1.322667 3.2 1.28 3.285334 1.109333 3.328 0.981333 3.370666 0.896 3.370667 0.853334 3.456 0.64 3.498667 0.554666 3.541333 0.469334 3.541333 0.426666 3.584 0.213334 3.626667 0.170666L298.666667 256h3.285333l3.285333-0.170667 3.285334-0.213333 3.242666-0.298667 3.2-0.341333 3.2-0.426667 3.157334-0.554666 3.114666-0.597334 3.114667-0.682666 3.072-0.768 3.072-0.810667 3.029333-0.853333 2.986667-1.024 2.944-1.024 2.944-1.109334 2.858667-1.194666 2.858666-1.237334 2.816-1.28 2.773334-1.450666 2.730666-1.408 2.730667-1.536 2.645333-1.578667 2.602667-1.621333 2.602667-1.706667 2.517333-1.706667 2.474667-1.834666 2.474666-1.877334 2.389334-1.962666 2.346666-1.962667 2.304-2.048 2.218667-2.090667 2.218667-2.133333 2.133333-2.218667 2.090667-2.218666 2.048-2.304 2.005333-2.346667 1.92-2.389333 1.877333-2.474667 1.792-2.474667 1.749334-2.517333 1.706666-2.56 1.621334-2.645333 1.578666-2.645334 1.536-2.730666 1.450667-2.730667 1.365333-2.773333 1.322667-2.816 1.237333-2.858667 1.194667-2.901333 1.109333-2.901334 1.024-2.944 0.981334-2.986666 0.896-2.986667 0.810666-3.114667 0.768-3.072 0.682667-3.114666 0.597333-3.114667 0.512-3.2 0.469334-3.157333 0.341333-3.242667 0.298667-3.2 0.213333-3.285333 0.128-3.285334L426.666667 128l0.042666-1.92 0.128-1.877333 0.213334-1.834667 0.298666-1.834667 0.384-1.792 0.469334-1.792 0.554666-1.706666 0.597334-1.706667 0.682666-1.706667 0.768-1.621333 0.810667-1.578667 0.938667-1.578666 0.938666-1.493334 1.024-1.450666 1.109334-1.450667 1.152-1.365333 1.237333-1.28 1.28-1.28 1.322667-1.194667 1.365333-1.109333 1.450667-1.109334 1.493333-1.024 1.493333-0.938666 1.578667-0.853334 1.664-0.853333 1.664-0.725333 1.706667-0.682667 1.706666-0.597333 1.792-0.512 1.834667-0.426667 1.834667-0.341333 1.877333-0.256 6.144-0.64 6.186667-0.554667 6.229333-0.426667 6.229333-0.426666 6.229334-0.341334 6.272-0.213333 6.314666-0.128h12.629334z m-12.032 42.666667l-5.674667 0.128-5.674667 0.170666-5.674666 0.298667-5.674667 0.341333-5.632 0.469334-5.632 0.469333-3.029333 0.341333v2.133334l-0.170667 4.352-0.298667 4.352-0.384 4.309333-0.469333 4.266667-0.597333 4.266666-0.682667 4.266667-0.810667 4.138667-0.896 4.138666-1.024 4.138667-1.109333 4.053333-1.194667 4.053334-1.322666 3.968-1.365334 3.968-1.493333 3.925333-1.578667 3.84-1.664 3.84-1.749333 3.712-1.834667 3.712-1.962666 3.669333-2.005334 3.584-2.090666 3.541334-2.176 3.498666-2.261334 3.456-2.346666 3.413334-2.432 3.242666-2.474667 3.285334-2.56 3.157333-2.645333 3.157333-2.730667 3.029334-2.773333 2.986666-2.858667 2.986667-2.901333 2.816-3.029334 2.773333-3.029333 2.730667-3.157333 2.645333-3.157334 2.56-3.285333 2.474667-3.285333 2.432-3.370667 2.346667-3.456 2.261333-3.456 2.176-3.584 2.133333-3.584 1.962667-3.669333 1.92-3.712 1.877333-3.754667 1.749334-3.797333 1.706666-3.84 1.536-3.925334 1.493334-3.925333 1.365333-4.010667 1.322667-4.053333 1.194666-4.053333 1.109334-4.138667 0.981333-4.138667 0.938667-4.181333 0.768-4.224 0.725333-4.266667 0.597333-4.266666 0.469334-4.309334 0.426666-4.352 0.256L303.061333 298.666667 298.624 298.666667l-4.821333-0.085334-4.821334-0.170666-4.864-0.384-4.821333-0.426667-4.864-0.682667-4.778667-0.810666-4.821333-0.938667-4.778667-1.109333-4.736-1.28-4.736-1.450667-4.693333-1.621333-4.650667-1.706667-4.608-2.005333-4.352-2.048-2.432-1.237334-2.218666-1.194666-2.176-1.194667-0.725334-0.298667-0.853333-0.298666-0.896-0.256-0.853333-0.213334-0.896-0.170666-0.853334-0.170667-0.853333-0.085333-0.896-0.085334h-1.749333l-0.896 0.042667-0.896 0.085333-0.853334 0.128L213.333333 279.125333l-0.853333 0.213334-0.853333 0.213333-0.853334 0.298667-0.810666 0.298666-0.810667 0.341334-0.810667 0.341333-0.768 0.426667-0.768 0.426666-0.768 0.469334-0.725333 0.512-0.682667 0.512-0.725333 0.554666-0.64 0.597334-0.64 0.64-0.64 0.682666-0.597333 0.725334-0.64 0.853333-1.962667 2.688-2.304 3.242667-2.218667 3.242666-2.218666 3.285334-2.176 3.328-2.176 3.328-2.133334 3.413333-2.090666 3.413333-2.090667 3.413334-2.048 3.413333-2.005333 3.456-2.005334 3.498667-1.962666 3.498666-1.962667 3.541334-1.92 3.584-1.536 2.986666-0.085333 0.085334-0.213334 0.469333-0.170666 0.469333-0.170667 0.469334-0.170667 0.469333-0.170666 0.426667-0.128 0.469333-0.170667 0.469333-0.085333 0.469334-0.128 0.469333-0.085334 0.469333-0.085333 0.469334-0.085333 0.469333-0.085334 0.469333-0.042666 0.469334-0.042667 0.469333-0.042667 0.469333-0.042666 0.469334v1.408l0.042666 0.469333 0.042667 0.725333 0.128 1.194667 0.170667 0.896 0.170666 0.938667 0.256 0.938666 0.256 0.896 0.341334 0.896 0.341333 0.896 0.512 1.066667 0.298667 0.64 0.256 0.426667 0.213333 0.426666 0.256 0.341334 0.256 0.426666 0.298667 0.426667 0.256 0.341333 0.298666 0.426667 0.298667 0.298667 0.298667 0.426666 0.298666 0.298667 0.298667 0.426667 0.341333 0.298666 0.341334 0.341334 0.341333 0.298666 0.341333 0.341334 0.384 0.341333 0.384 0.298667 0.384 0.298666 0.384 0.298667 0.426667 0.298667 0.426667 0.298666 0.725333 0.469334 3.797333 2.432 4.394667 3.029333 4.266667 3.157333 4.181333 3.285334 4.096 3.413333 3.968 3.541333 3.882667 3.669334 3.712 3.754666 3.626666 3.882667 3.498667 4.010667 3.413333 4.096 3.242667 4.266666 3.114667 4.266667 2.986666 4.437333 2.858667 4.48 2.730667 4.693334 2.56 4.693333 2.389333 4.608 1.237333 2.56 1.109334 2.474667 1.109333 2.474666 1.024 2.474667 1.024 2.56 0.981333 2.474667 0.938667 2.56 0.896 2.602666 0.853333 2.56 0.810667 2.602667 0.768 2.645333 0.725333 2.645334 0.682667 2.645333 0.64 2.688 0.597333 2.688 0.597334 2.730667 0.512 2.730666 0.469333 2.730667 0.426667 2.730667 0.384 2.773333 0.341333 2.773333 0.298667 2.773334 0.256 2.816 0.213333 2.816 0.170667 2.816 0.128 2.816 0.042666 2.858666L256 512l-0.042667 2.858667-0.042666 2.816-0.128 2.858666-0.170667 2.816-0.213333 2.816-0.256 2.773334-0.298667 2.816-0.341333 2.773333-0.384 2.773333-0.426667 2.730667-0.469333 2.730667-0.512 2.730666-0.554667 2.688-0.64 2.688-0.64 2.688-0.682667 2.645334-0.725333 2.645333-0.768 2.645333-0.810667 2.602667-0.853333 2.602667-0.896 2.56-0.938667 2.56-0.938666 2.56-1.024 2.474666-1.066667 2.474667-1.152 2.645333-2.176 4.736-2.432 4.778667-2.56 4.693333-2.730667 4.608-2.816 4.522667-2.986666 4.437333-3.114667 4.309334-3.242667 4.266666-3.328 4.053334-3.498666 4.010666-3.584 3.882667-3.712 3.84-3.84 3.626667-3.925334 3.541333-4.053333 3.413333-4.138667 3.328-4.224 3.157334-4.352 3.072-3.925333 2.56-0.896 0.597333-0.426667 0.256-0.384 0.298667-0.384 0.298666-0.384 0.298667-0.384 0.298667-0.341333 0.341333-0.341333 0.298667-0.341334 0.341333-0.341333 0.341333-0.341333 0.341334-0.298667 0.341333-0.298667 0.341333-0.298666 0.341334-0.298667 0.426666-0.256 0.341334-0.298667 0.341333-0.256 0.426667-0.256 0.426666-0.213333 0.341334-0.256 0.426666-0.085333 0.170667-0.554667 1.024-0.384 0.853333-0.341333 0.853334-0.298667 0.896-0.298667 0.896-0.213333 0.896-0.213333 0.896-0.128 0.938666-0.128 0.896-0.085334 1.194667v1.578667l0.042667 0.469333v0.469333l0.042667 0.469334 0.085333 0.469333 0.042667 0.426667 0.085333 0.469333 0.085333 0.469333 0.085334 0.469334 0.128 0.426666 0.128 0.469334 0.128 0.469333 0.128 0.469333 0.170666 0.426667 0.170667 0.469333 0.170667 0.469334 0.170666 0.426666 0.213334 0.469334 0.213333 0.426666 1.621333 3.2 1.834667 3.498667 1.834667 3.456 1.834666 3.413333 1.92 3.328 1.92 3.285334 1.962667 3.242666 2.005333 3.2 2.005334 3.157334 2.048 3.072 2.090666 3.029333 2.133334 2.986667 2.176 2.986666 2.176 2.816 2.261333 2.816 2.944 3.541334 1.493333 1.962666 0.554667 0.64 0.554667 0.597334 0.597333 0.597333 0.597333 0.554667 0.64 0.512 0.64 0.469333 0.682667 0.469333 0.682667 0.426667 0.682666 0.426667 0.725334 0.341333 0.725333 0.341333 0.768 0.298667 0.768 0.298667 0.768 0.256 0.768 0.170666 0.810667 0.213334 0.810666 0.128 0.810667 0.128 0.768 0.042666 0.810667 0.042667 0.810666 0.042667h0.810667l0.810667-0.128 0.810666-0.085334 0.810667-0.128 0.768-0.170666 0.810667-0.213334 0.810666-0.213333 0.768-0.298667 0.810667-0.298666 1.621333-0.725334 3.626667-1.664 4.224-1.792 4.266667-1.664 4.352-1.578666 4.394666-1.450667 4.48-1.28 4.48-1.28 4.565334-1.109333 4.565333-0.938667 4.650667-0.853333 4.650666-0.725334 4.736-0.597333 4.736-0.426667 4.778667-0.384 4.821333-0.213333h9.216l4.352 0.170667 4.352 0.256 4.309334 0.426666 4.266666 0.469334 4.266667 0.597333 4.224 0.682667 4.181333 0.853333 4.138667 0.853333 4.138667 1.024 4.053333 1.109334 4.053333 1.194666 4.010667 1.28 3.925333 1.408 3.925334 1.493334 3.84 1.578666 3.797333 1.706667 3.754667 1.706667 3.712 1.834666 3.669333 1.92 3.584 2.048 3.584 2.133334 3.456 2.133333 3.456 2.261333 3.370667 2.346667 3.285333 2.389333 3.285333 2.56 3.157334 2.56 3.157333 2.602667 3.029333 2.730667 2.986667 2.773333 2.944 2.858667 2.858667 2.901333 2.773333 3.029333 2.730667 3.029334 2.645333 3.114666 2.56 3.2 2.517333 3.242667 2.389334 3.328 2.346666 3.413333 2.261334 3.413334 2.176 3.456 2.090666 3.541333 2.005334 3.626667 1.962666 3.669333 1.834667 3.669333 1.749333 3.84 1.664 3.754667 1.578667 3.84 1.493333 3.925333 1.365334 3.925334 1.322666 4.010666 1.194667 4.053334 1.109333 4.053333 1.024 4.138667 0.896 4.138666 0.810667 4.181334 0.682667 4.266666 0.597333 4.266667 0.469333 4.266667 0.384 4.266666 0.298667 4.352 0.170667 4.352v1.024l0.085333 1.024 3.2 0.341334 5.589333 0.512 5.546667 0.469333 5.632 0.341333 5.632 0.298667 5.632 0.213333 5.674667 0.128L512 896h5.717333l5.674667-0.170667 5.674667-0.213333 5.674666-0.256 5.674667-0.384 5.632-0.426667 5.632-0.512 3.029333-0.298666v-2.133334l0.170667-4.352 0.298667-4.352 0.384-4.266666 0.469333-4.266667 0.597333-4.266667 0.682667-4.266666 0.810667-4.181334 0.896-4.138666 1.024-4.138667 1.109333-4.053333 1.194667-4.053334 1.322666-4.010666 1.365334-3.925334 1.493333-3.925333 1.578667-3.84 1.664-3.797333 1.749333-3.797334 1.834667-3.669333 1.962666-3.669333 2.005334-3.626667 2.090666-3.541333 2.176-3.498667 2.261334-3.413333 2.346666-3.370667 2.389334-3.328 2.517333-3.242667 2.56-3.2 2.645333-3.114666 2.730667-2.986667 2.773333-3.072 2.858667-2.901333 2.944-2.858667 2.986667-2.773333 3.029333-2.730667 3.157333-2.645333 3.157334-2.56 3.285333-2.517334 3.285333-2.389333 3.370667-2.346667 3.456-2.261333 3.456-2.133333 3.584-2.133334 3.584-2.048 3.669333-1.92 3.712-1.834666 3.754667-1.706667 3.797333-1.706667 3.84-1.578666 3.925334-1.493334 3.925333-1.408 4.010667-1.28 4.053333-1.194666 4.053333-1.109334 4.138667-1.024 4.138667-0.853333 4.181333-0.853333 4.224-0.682667 4.266667-0.597333 4.266666-0.512 4.309334-0.384 4.352-0.256 4.352-0.170667h9.258666l4.821334 0.213333 4.864 0.341334 4.821333 0.512 4.864 0.64 4.778667 0.853333 4.821333 0.896 4.778667 1.109333 4.736 1.28 4.736 1.450667 4.693333 1.578667 4.650667 1.792 4.608 1.962666 4.352 2.048 2.432 1.28 2.218666 1.109334 2.176 1.194666 0.725334 0.298667 0.896 0.298667 0.853333 0.298666 0.853333 0.213334 0.896 0.170666 0.853334 0.128 0.896 0.128 0.853333 0.042667 0.896 0.042667h1.749333l0.896-0.128 0.853334-0.128 0.896-0.170667 0.853333-0.170667 0.853333-0.256 0.853334-0.256 0.810666-0.298666 0.810667-0.341334 0.810667-0.341333 0.768-0.426667 0.768-0.426666 0.768-0.426667 0.725333-0.554667 0.682667-0.512 0.725333-0.597333 0.64-0.597333 0.64-0.64 0.64-0.64 0.597333-0.725334 0.64-0.853333 1.962667-2.688 2.304-3.242667 2.218667-3.285333 2.218666-3.285333 2.176-3.285334 2.176-3.370666 2.133334-3.370667 2.090666-3.370667 2.090667-3.413333 2.048-3.413333 2.005333-3.498667 2.005334-3.498667 1.962666-3.541333 1.962667-3.541333 1.92-3.541334 1.536-2.986666 0.085333-0.085334 0.213334-0.426666 0.170666-0.512 0.170667-0.426667 0.170667-0.512 0.170666-0.426667 0.128-0.512 0.170667-0.426666 0.085333-0.512 0.128-0.426667 0.085334-0.426667 0.085333-0.512 0.085333-0.426666 0.085334-0.512 0.042666-0.426667 0.042667-0.512 0.042667-0.426667 0.042666-0.512v-1.408l-0.042666-0.512v-0.426666l-0.042667-0.256-0.128-1.194667-0.170667-0.938667-0.170666-0.938666-0.256-0.853334-0.256-0.938666-0.341334-0.853334-0.341333-0.938666-0.512-1.066667-0.085333-0.213333-0.213334-0.426667-0.256-0.426667-0.213333-0.384-0.256-0.426666-0.256-0.384-0.298667-0.384-0.256-0.384-0.298666-0.384-0.298667-0.384-0.298667-0.341334-0.298666-0.341333-0.298667-0.384-0.341333-0.341333-0.341334-0.341334-0.341333-0.341333-0.341333-0.298667-0.384-0.341333-0.384-0.298667-0.384-0.298666-0.384-0.341334-0.426667-0.256-0.426667-0.298666-0.725333-0.426667-3.797333-2.517333-4.394667-2.986667-4.266667-3.157333-4.181333-3.285334-4.096-3.413333-3.968-3.541333-3.882667-3.669334-3.712-3.754666-3.626666-3.84-3.498667-4.053334-3.413333-4.096-3.242667-4.224-3.114667-4.266666-2.986666-4.48-2.858667-4.522667-2.730667-4.608-2.56-4.693333-2.389333-4.650667-1.237333-2.56-1.109334-2.474667-1.109333-2.474666-1.024-2.474667-1.024-2.517333-0.981333-2.56-0.938667-2.56-0.896-2.56-0.853333-2.56-0.810667-2.645334-0.768-2.56-0.725333-2.688-0.682667-2.688-0.64-2.645333-0.597333-2.688-0.597334-2.730667-0.512-2.730666-0.469333-2.730667-0.426667-2.730667-0.384-2.773333-0.341333-2.773333-0.298667-2.816-0.256-2.773334-0.213333-2.816-0.170667-2.816-0.128-2.858666-0.042666-2.816L768 512l0.042667-2.858667 0.042666-2.858666 0.128-2.816 0.170667-2.816 0.213333-2.816 0.256-2.816 0.298667-2.773334 0.341333-2.773333 0.384-2.773333 0.426667-2.730667 0.469333-2.730667 0.512-2.730666 0.554667-2.730667 0.64-2.688 0.64-2.645333 0.682667-2.688 0.725333-2.645334 0.768-2.56 0.810667-2.645333 0.853333-2.56 0.896-2.56 0.938667-2.56 0.938666-2.56 1.024-2.517333 1.066667-2.517334 1.152-2.56 2.176-4.778666 2.432-4.778667 2.56-4.693333 2.730667-4.650667 2.816-4.522667 2.986666-4.394666 3.114667-4.266667 3.242667-4.266667 3.328-4.138666 3.498666-3.968 3.584-3.925334 3.712-3.754666 3.84-3.669334 3.925334-3.541333 4.053333-3.413333 4.138667-3.328 4.224-3.2 4.352-2.986667 3.925333-2.56 0.896-0.64 0.426667-0.256 0.384-0.298667 0.384-0.298666 0.384-0.298667 0.384-0.341333 0.341333-0.298667 0.341333-0.298667 0.341334-0.341333 0.341333-0.341333 0.341333-0.341334 0.298667-0.341333 0.298667-0.341333 0.298666-0.384 0.298667-0.341334 0.256-0.384 0.298667-0.384 0.256-0.384 0.256-0.384 0.213333-0.384 0.256-0.384 0.085333-0.213333 0.554667-1.024 0.384-0.853333 0.341333-0.853334 0.298667-0.853333 0.298667-0.938667 0.213333-0.853333 0.213333-0.938667 0.128-0.938666 0.128-0.853334 0.085334-1.237333v-1.578667l-0.042667-0.512v-0.426666l-0.042667-0.426667-0.085333-0.512-0.042667-0.426667-0.085333-0.426666-0.085333-0.512-0.085334-0.426667-0.128-0.512-0.128-0.426667-0.128-0.426666-0.128-0.512-0.170666-0.426667-0.170667-0.426667-0.170667-0.512-0.170666-0.426666-0.213334-0.426667-0.213333-0.426667-1.621333-3.285333-1.834667-3.413333-1.834667-3.498667-1.834666-3.370667-1.92-3.370666-1.92-3.285334-1.962667-3.242666-2.005333-3.2-2.005334-3.157334-2.048-3.072-2.090666-2.986666-2.133334-2.986667-2.176-2.986667-2.176-2.858666-2.261333-2.816-2.944-3.541334-1.493333-1.962666-0.554667-0.64-0.554667-0.597334-0.597333-0.597333-0.597333-0.554667-0.64-0.512-0.64-0.512-0.682667-0.426666-0.682667-0.426667-0.682666-0.426667-0.725334-0.341333-0.725333-0.341333-0.768-0.341334-0.768-0.256-0.768-0.256-0.768-0.213333-0.810667-0.170667-0.810666-0.128-0.768-0.128-0.810667-0.085333H805.504l-0.810667 0.042667-0.810666 0.128-0.810667 0.128-0.768 0.128-0.810667 0.213333-0.810666 0.256-0.768 0.256-0.810667 0.341333-1.621333 0.725334-3.626667 1.706666-4.224 1.749334-4.266667 1.706666-4.352 1.536-4.394666 1.450667-4.48 1.322667-4.48 1.28-4.565334 1.024-4.565333 0.981333-4.650667 0.853333-4.650666 0.725334-4.736 0.597333-4.736 0.469333-4.778667 0.341334-4.821333 0.170666-4.778667 0.085334h-4.437333l-4.352-0.213334-4.352-0.298666-4.309334-0.384-4.266666-0.426667-4.266667-0.64-4.224-0.725333-4.181333-0.768-4.138667-0.938667-4.138667-0.981333-4.053333-1.109334-4.053333-1.194666-4.010667-1.28-3.925333-1.408-3.925334-1.493334-3.84-1.578666-3.797333-1.664-3.754667-1.706667-3.712-1.92-3.669333-1.92-3.584-2.005333-3.584-2.090667-3.456-2.133333-3.456-2.304-3.370667-2.346667-3.285333-2.432-3.285333-2.474667-3.157334-2.56-3.157333-2.645333-3.029333-2.730667-3.029334-2.773333-2.901333-2.858667-2.858667-2.944-2.773333-2.986666-2.730667-2.986667-2.645333-3.2-2.56-3.157333-2.474667-3.285334-2.432-3.285333-2.346666-3.370667-2.261334-3.413333-2.176-3.541333-2.090666-3.541334-2.005334-3.584-1.962666-3.669333-1.834667-3.712-1.749333-3.754667-1.664-3.797333-1.578667-3.84-1.493333-3.925333-1.365334-3.968-1.322666-3.968-1.194667-4.053334L560.042667 170.666667l-1.024-4.138667-0.896-4.138667-0.810667-4.181333-0.682667-4.224-0.597333-4.266667-0.469333-4.266666-0.384-4.266667-0.298667-4.394667-0.170667-4.352V131.413333l-0.085333-1.024-3.2-0.341333-5.589333-0.554667-5.546667-0.426666-5.632-0.384-5.632-0.256-5.632-0.213334-5.674667-0.128h-11.434666z" fill="#00af2c" p-id="2618"></path></svg>