<?xml version="1.0" standalone="no"?><!DOCTYPE svg PUBLIC "-//W3C//DTD SVG 1.1//EN" "http://www.w3.org/Graphics/SVG/1.1/DTD/svg11.dtd"><svg t="1648021799226" class="icon" viewBox="0 0 1024 1024" version="1.1" xmlns="http://www.w3.org/2000/svg" p-id="2421" xmlns:xlink="http://www.w3.org/1999/xlink" width="200" height="200"><defs><style type="text/css"></style></defs><path d="M473.728 128.042667l4.437333 0.042666 4.352 0.170667 4.394667 0.170667 4.309333 0.256 4.352 0.298666 4.352 0.384 4.266667 0.426667 4.266667 0.426667 4.309333 0.512 4.266667 0.597333 4.266666 0.64 4.224 0.682667 4.181334 0.682666 4.181333 0.768 4.224 0.853334 4.138667 0.853333 4.138666 0.938667 4.096 0.938666 4.138667 1.109334 4.053333 1.066666 4.053334 1.109334 4.053333 1.152 4.010667 1.237333 4.010666 1.28 3.968 1.28 3.925334 1.408 3.968 1.408 3.882666 1.450667 3.925334 1.493333 3.84 1.578667 3.84 1.578666 3.84 1.621334 3.797333 1.706666 3.754667 1.706667 3.754666 1.834667 3.669334 1.792 3.712 1.834666 3.669333 1.92 3.626667 1.962667 3.626666 2.005333 3.584 2.048 3.541334 2.090667 3.584 2.090667 3.413333 2.133333 3.541333 2.218667 3.456 2.218666 3.413334 2.304 3.370666 2.346667 3.370667 2.346667 3.328 2.389333 3.285333 2.432 3.285334 2.474667 3.242666 2.56 3.2 2.517333 3.2 2.56 3.114667 2.645333 3.114667 2.688 3.072 2.688 3.072 2.730667 2.986666 2.773333 3.029334 2.816 2.944 2.858667 2.901333 2.858667 2.901333 2.944 2.816 2.901333 2.816 3.029333 2.773334 2.986667 2.730666 3.072 2.688 3.072 2.688 3.114667 2.645334 3.114666 2.56 3.2 2.56 3.2 2.56 3.242667 2.432 3.285333 2.474666 3.328 2.389334 3.285334 2.304 3.413333 2.346666 3.328 2.304 3.413333 2.261334 3.456 2.176 3.498667 2.133333 3.498667 2.133333 3.541333 2.090667 3.541333 2.048 3.584 1.962667 3.669334 1.962666 3.584 1.92 3.669333 1.834667 3.712 1.792 3.712 1.834667 3.754667 1.706666 3.754666 1.706667 3.797334 1.664 3.797333 1.536 3.84 1.578667 3.84 1.493333 3.925333 1.450667 3.882667 1.450666 3.968 1.365334 3.925333 1.28 3.968 1.28 4.010667 1.237333 4.053333 1.152 4.010667 1.109333 4.053333 1.109334 4.053334 1.066666 4.138666 0.981334 4.096 0.896 4.138667 0.853333 4.181333 0.853333 4.181334 0.810667 4.181333 0.682667 4.181333 0.682666 4.266667 0.597334 4.266667 0.597333 4.224 0.512 4.266666 0.469333 4.266667 0.426667 4.309333 0.341333 4.352 0.298667 4.352 0.256 4.352 0.170667 4.352 0.170666 4.352 0.042667 4.437334L810.666667 469.333333l-0.042667 4.394667-0.042667 4.437333-0.170666 4.352-0.170667 4.352-0.256 4.352-0.298667 4.352-0.384 4.352-0.384 4.266667-0.469333 4.266667-0.512 4.309333-0.597333 4.266667-0.597334 4.266666-0.682666 4.224-0.682667 4.181334-0.810667 4.181333-0.853333 4.181333-0.853333 4.181334-0.896 4.138666-0.981334 4.096-1.066666 4.138667-1.109334 4.053333-1.109333 4.053334-1.152 4.010666-1.237333 4.053334-1.28 4.010666-1.28 3.968-1.365334 3.925334-1.450666 3.968-1.450667 3.882666-1.493333 3.925334-1.578667 3.84-1.536 3.84-1.706667 3.84-1.706666 3.754666-1.706667 3.754667-1.792 3.754667-1.792 3.712-1.834667 3.712-1.92 3.669333-1.962666 3.584-1.962667 3.669333-2.048 3.584-2.133333 3.541334-2.090667 3.541333-2.133333 3.498667-2.176 3.498666-2.261334 3.456-2.304 3.413334-2.346666 3.370666-2.304 3.370667-2.389334 3.285333-2.474666 3.328-2.474667 3.285334-2.56 3.242666-2.517333 3.2-2.56 3.2-2.645334 3.114667-2.688 3.114667-2.688 3.072-2.730666 3.072-2.773334 2.986666-2.816 2.986667-2.816 2.986667-2.901333 2.901333-2.901333 2.858667-2.944 2.858666-2.986667 2.816-2.986667 2.773334-3.114666 2.730666-3.072 2.688-3.114667 2.688-3.114667 2.645334-3.2 2.56-3.2 2.56-3.242666 2.517333-3.285334 2.474667-3.285333 2.432-3.328 2.389333-3.370667 2.346667-3.370666 2.346666-3.413334 2.304-3.456 2.218667-3.498666 2.218667-3.456 2.133333-3.584 2.133333-3.541334 2.048-3.584 2.048-3.626666 2.005334-3.626667 1.962666-3.669333 1.92-3.712 1.834667-3.669334 1.792-3.754666 1.834667-3.754667 1.706666-3.84 1.706667-3.797333 1.621333-3.84 1.578667-3.84 1.578667-3.925334 1.493333-3.882666 1.450667-3.968 1.408-3.925334 1.365333-3.968 1.322667-4.010666 1.28-4.010667 1.237333-4.053333 1.152-4.053334 1.109333-4.053333 1.066667-4.138667 1.109333-4.096 0.938667-4.138666 0.938667-4.138667 0.853333-4.224 0.853333-4.181333 0.768-4.181334 0.682667-4.266666 0.682667-4.266667 0.64-4.224 0.597333-4.266667 0.469333-4.266666 0.512-4.309334 0.384-4.352 0.426667-4.352 0.256-4.309333 0.256-4.394667 0.170667-4.352 0.170666h-4.437333L469.333333 810.666667l-4.394666-0.042667-4.437334-0.042667-4.309333-0.170666-4.394667-0.170667-4.352-0.256-4.352-0.298667-4.309333-0.384-4.309333-0.426666-4.266667-0.426667-4.309333-0.512-4.266667-0.597333-4.224-0.64-4.266667-0.682667-4.181333-0.682667-4.181333-0.768-4.181334-0.853333-4.138666-0.853333-4.181334-0.938667-4.096-0.938667-4.138666-1.109333-4.053334-1.066667-4.010666-1.109333-4.053334-1.152-4.053333-1.237333-4.010667-1.28-3.925333-1.28-3.968-1.408-3.968-1.408-3.882667-1.450667-3.882666-1.493333-3.84-1.578667-3.882667-1.578667-3.84-1.621333-3.754667-1.706667-3.754666-1.706666-3.754667-1.834667-3.712-1.792-3.712-1.834667-3.669333-1.92-3.584-1.962666-3.669334-2.005334-3.541333-2.048-3.584-2.090666-3.541333-2.090667-3.456-2.133333-3.541334-2.218667-3.413333-2.218667-3.413333-2.304-3.413334-2.346666-3.370666-2.346667-3.285334-2.389333-3.328-2.432-3.285333-2.474667-3.242667-2.56-3.157333-2.517333-3.242667-2.56-3.114666-2.645334-3.114667-2.688-3.072-2.688-3.072-2.730666-2.986667-2.773334-2.986666-2.816-2.986667-2.858666-2.901333-2.858667-2.858667-2.944-2.858667-2.901333-2.816-3.029334-2.773333-2.986666-2.730667-3.072-2.688-3.072-2.688-3.114667-2.602666-3.114667-2.602667-3.2-2.56-3.2-2.517333-3.242666-2.474667-3.285334-2.432-3.328-2.389333-3.285333-2.346667-3.413333-2.346667-3.328-2.304-3.413334-2.218666-3.456-2.218667-3.498666-2.133333-3.498667-2.133334-3.541333-2.048-3.541334-2.048-3.584-2.005333-3.669333-1.962667-3.584-1.877333-3.669333-1.877333-3.712-1.792-3.712-1.792-3.754667-1.706667-3.754667-1.706667-3.797333-1.706666-3.797333-1.536-3.84-1.536-3.84-1.536-3.925334-1.450667-3.882666-1.408-3.968-1.365333-3.925334-1.322667-3.968-1.28-4.010666-1.194667-4.053334-1.194666-4.010666-1.109334-4.053334-1.066666-4.053333-1.066667-4.138667-0.981333-4.096-0.938667-4.138666-0.853333-4.181334-0.853334-4.181333-0.768-4.181333-0.682666-4.181334-0.682667-4.266666-0.64-4.266667-0.597333-4.224-0.469334-4.266667-0.512-4.266666-0.384-4.309334-0.384-4.352-0.298666-4.352-0.256-4.352-0.170667-4.352-0.170667-4.352v-4.437333L128 469.333333l0.042667-4.394666 0.042666-4.437334 0.170667-4.352 0.170667-4.352 0.256-4.352 0.298666-4.352 0.426667-4.352 0.341333-4.266666 0.512-4.266667 0.469334-4.309333 0.597333-4.266667 0.64-4.266667 0.682667-4.224 0.682666-4.181333 0.768-4.181333 0.853334-4.181334 0.853333-4.181333 0.938667-4.138667 0.981333-4.096 1.066667-4.138666 1.066666-4.053334 1.109334-4.053333 1.194666-4.010667 1.194667-4.053333 1.28-4.010667 1.28-3.968 1.408-3.925333 1.408-3.968 1.450667-3.882667 1.536-3.925333 1.536-3.84 1.578666-3.84 1.664-3.84 1.706667-3.754667 1.706667-3.754666 1.792-3.754667 1.792-3.712 1.877333-3.712 1.877333-3.669333 1.962667-3.584 2.005333-3.669334 2.048-3.584 2.090667-3.541333 2.090667-3.541333 2.133333-3.498667 2.218667-3.498667 2.218666-3.456 2.304-3.413333 2.346667-3.370667 2.346667-3.370666 2.389333-3.285334 2.432-3.328 2.474667-3.285333 2.56-3.242667 2.517333-3.2 2.56-3.2 2.645333-3.114666 2.688-3.114667 2.688-3.072 2.730667-3.072 2.773333-2.986667 2.816-2.986666 2.858667-2.986667 2.858667-2.901333 2.944-2.858667 2.901333-2.858667 3.029333-2.816 2.986667-2.773333 3.072-2.730667 3.072-2.688 3.114667-2.688 3.114666-2.645333 3.242667-2.56 3.157333-2.56 3.242667-2.517333 3.285333-2.474667 3.328-2.432 3.285334-2.389333 3.413333-2.346667 3.328-2.346667 3.413333-2.304 3.456-2.218666 3.541334-2.218667 3.413333-2.133333 3.584-2.133334 3.584-2.048 3.541333-2.048 3.669334-2.005333 3.584-1.962667 3.669333-1.92 3.712-1.834666 3.712-1.792 3.754667-1.834667 3.754666-1.706667 3.797334-1.706666 3.797333-1.621334 3.84-1.578666 3.84-1.578667 3.925333-1.493333 3.882667-1.450667 3.968-1.408 3.968-1.365333 3.925333-1.322667 4.010667-1.28 4.053333-1.237333 4.053334-1.152 4.010666-1.109334 4.053334-1.066666 4.138666-1.109334 4.096-0.938666 4.181334-0.938667 4.138666-0.853333 4.181334-0.853334 4.181333-0.768 4.224-0.682666 4.224-0.682667 4.266667-0.64 4.224-0.597333 4.266666-0.469334 4.309334-0.512 4.266666-0.384 4.352-0.426666 4.352-0.256 4.352-0.256 4.394667-0.170667 4.309333-0.170667h4.437334L469.333333 128l4.394667 0.042667z m-8.234667 42.666666l-3.84 0.042667-3.84 0.170667-3.882666 0.128-3.84 0.213333-3.754667 0.298667-3.754667 0.256-3.84 0.426666-3.712 0.384-3.754666 0.426667-3.712 0.554667-3.712 0.512-3.712 0.597333-3.669334 0.64-3.712 0.682667-3.584 0.725333-3.669333 0.725333-3.584 0.853334-3.626667 0.810666-3.541333 0.938667-3.584 0.896-3.541333 0.981333L384 183.04l-3.498667 1.066667-3.456 1.152-3.456 1.152-3.456 1.152-3.498666 1.28-3.413334 1.28-3.328 1.28-3.413333 1.408-3.413333 1.365333-3.285334 1.450667-3.328 1.450666-3.285333 1.536-3.285333 1.536-3.2 1.621334-3.285334 1.621333-3.157333 1.664-3.242667 1.706667-3.114666 1.706666-3.157334 1.792-3.114666 1.834667-3.072 1.877333-3.072 1.834667-3.029334 1.962667-3.029333 1.962666-2.986667 1.962667-2.986666 2.048-2.986667 2.048-2.901333 2.133333-2.858667 2.133334-2.901333 2.176-2.816 2.218666-2.816 2.218667-2.773334 2.261333-2.730666 2.304-2.730667 2.304-2.688 2.389334-2.688 2.389333-2.645333 2.474667-2.602667 2.432-2.602667 2.474666-2.56 2.56-2.517333 2.517334-2.474667 2.56-2.432 2.645333-2.432 2.645333-2.389333 2.688-2.389333 2.688-2.346667 2.730667-2.304 2.730667-2.261333 2.816-2.218667 2.773333-2.218667 2.816-2.176 2.901333-2.133333 2.858667-2.133333 2.944-2.005334 2.901333-2.048 2.986667-2.005333 2.986667-1.962667 3.072-1.962666 2.986666-1.834667 3.114667-1.877333 3.072-1.834667 3.114667-1.749333 3.157333-1.749334 3.114667-1.706666 3.242666-1.706667 3.157334-1.578667 3.242666-1.621333 3.242667-1.536 3.242667-1.536 3.328-1.450667 3.328-1.450666 3.328-1.365334 3.328-1.365333 3.413333-1.322667 3.413333-1.28 3.413334-1.28 3.413333-1.152 3.498667-1.152 3.413333-1.152 3.498667L183.04 384l-1.024 3.584-0.981333 3.541333-0.896 3.541334-0.938667 3.584-0.853333 3.584-0.810667 3.626666-0.725333 3.669334-0.725334 3.584-0.682666 3.712-0.64 3.669333-0.597334 3.712-0.512 3.712-0.554666 3.669333-0.426667 3.754667-0.426667 3.754667-0.341333 3.84-0.298667 3.754666-0.298666 3.797334-0.213334 3.797333-0.128 3.84-0.170666 3.84v3.84L170.666667 469.333333l0.042666 3.84 0.042667 3.84 0.170667 3.84 0.128 3.882667 0.213333 3.84 0.298667 3.754667 0.298666 3.754666 0.384 3.84 0.384 3.754667 0.426667 3.754667 0.554667 3.669333 0.512 3.712 0.597333 3.712 0.64 3.669333 0.682667 3.712 0.725333 3.584 0.725333 3.669334 0.853334 3.626666 0.810666 3.584 0.938667 3.584 0.896 3.541334 0.981333 3.541333 1.024 3.584 1.066667 3.498667 1.152 3.456 1.152 3.456 1.194667 3.498666 1.28 3.413334 1.237333 3.413333 1.28 3.413333 1.408 3.413334 1.365333 3.328 1.450667 3.328 1.450667 3.328 1.536 3.328 1.536 3.242666 1.621333 3.242667 1.621333 3.242667 1.664 3.157333 1.706667 3.242667 1.706667 3.114666 1.792 3.157334 1.834666 3.114666 1.877334 3.072 1.834666 3.072 1.962667 3.029334 1.962667 3.029333 2.005333 3.029333 2.048 2.986667 2.048 2.901333 2.090667 2.944 2.133333 2.858667 2.176 2.901333 2.218667 2.816 2.218666 2.773334 2.261334 2.816 2.304 2.730666 2.346666 2.730667 2.389334 2.688 2.389333 2.688 2.432 2.645333 2.432 2.645334 2.474667 2.56 2.56 2.56 2.517333 2.517333 2.56 2.474667 2.645333 2.432 2.645334 2.474666 2.688 2.389334 2.688 2.389333 2.730666 2.304 2.730667 2.304 2.816 2.261333 2.773333 2.218667 2.816 2.218667 2.901334 2.176 2.858666 2.133333 2.944 2.133333 2.901334 2.048 2.986666 2.048 3.029334 1.962667 2.986666 1.962667 3.072 1.962666 3.072 1.834667 3.072 1.877333 3.114667 1.834667 3.157333 1.749333 3.114667 1.749334 3.242667 1.706666 3.157333 1.706667 3.285333 1.578667 3.2 1.621333 3.285334 1.536 3.285333 1.536 3.328 1.450667 3.328 1.450666 3.370667 1.365334 3.413333 1.365333 3.328 1.322667 3.413333 1.28 3.498667 1.28 3.413333 1.152 3.498667 1.152 3.456 1.152 3.498667 1.066666 3.584 1.024 3.541333 0.981334 3.584 0.896 3.541333 0.938666 3.626667 0.853334 3.584 0.810666 3.669333 0.725334 3.584 0.725333 3.712 0.682667 3.669334 0.64 3.712 0.597333 3.712 0.512 3.712 0.554667 3.754666 0.426666 3.754667 0.426667 3.797333 0.384 3.754667 0.256 3.797333 0.298667 3.797334 0.213333 3.84 0.128 3.84 0.170667h3.84L469.333333 768l3.84-0.042667 3.84-0.042666 3.882667-0.170667 3.84-0.128 3.84-0.213333 3.797333-0.298667 3.754667-0.256 3.797333-0.426667 3.754667-0.384 3.754667-0.426666 3.712-0.554667 3.669333-0.512 3.712-0.597333 3.669333-0.64 3.712-0.682667 3.584-0.725333 3.669334-0.725334 3.626666-0.853333 3.584-0.810667 3.584-0.938666 3.541334-0.896 3.584-0.981334 3.541333-1.024 3.498667-1.066666 3.456-1.152 3.498666-1.152 3.413334-1.152 3.498666-1.28 3.413334-1.28 3.370666-1.28 3.413334-1.408 3.370666-1.365334 3.285334-1.450666 3.328-1.450667 3.328-1.536 3.242666-1.536 3.242667-1.621333 3.242667-1.621334 3.2-1.664 3.2-1.706666 3.114666-1.706667 3.157334-1.792 3.157333-1.834667 3.072-1.877333 3.072-1.834667 2.986667-1.962666 3.029333-1.962667 3.029333-1.962667 2.986667-2.048 2.901333-2.048 2.944-2.133333 2.858667-2.133333 2.901333-2.176 2.816-2.218667 2.773334-2.218667 2.858666-2.261333 2.730667-2.304 2.730667-2.304 2.645333-2.389333 2.688-2.389334 2.645333-2.474666 2.645334-2.432 2.56-2.474667 2.56-2.56 2.56-2.517333 2.432-2.56 2.474666-2.645334 2.432-2.645333 2.389334-2.688 2.389333-2.688 2.346667-2.730667 2.261333-2.730666 2.261333-2.816 2.218667-2.773334 2.218667-2.816 2.176-2.901333 2.133333-2.858667 2.133333-2.944 2.048-2.901333 2.048-2.986667 2.005334-2.986666 1.92-3.072 1.962666-2.986667 1.834667-3.114667 1.877333-3.072 1.834667-3.114666 1.749333-3.157334 1.792-3.114666 1.706667-3.242667 1.621333-3.157333 1.621334-3.242667 1.621333-3.242667 1.536-3.242666 1.536-3.328 1.450667-3.328 1.450666-3.328 1.365334-3.328 1.365333-3.413334 1.322667-3.413333 1.28-3.413333 1.28-3.413334 1.152-3.498666 1.194666-3.413334 1.109334-3.498666 1.066666-3.498667 1.024-3.584 0.981334-3.541333 0.938666-3.541334 0.896-3.584 0.853334-3.584 0.853333-3.626666 0.682667-3.669334 0.725333-3.584 0.682667-3.712 0.64-3.669333 0.597333-3.712 0.554667-3.712 0.512-3.669333 0.426666-3.754667 0.426667-3.754667 0.384-3.84 0.298667-3.754666 0.256-3.797334 0.213333-3.797333 0.128-3.84 0.170667-3.84 0.042666-3.84L768 469.333333 768 465.493333l-0.042667-3.84-0.170666-3.84-0.128-3.882666-0.213334-3.84-0.256-3.754667-0.298666-3.754667-0.426667-3.84-0.384-3.754666-0.426667-3.754667-0.512-3.669333-0.554666-3.712-0.597334-3.712-0.64-3.669334-0.682666-3.712-0.725334-3.584-0.725333-3.669333-0.853333-3.626667-0.810667-3.584-0.896-3.584-0.938667-3.541333-0.981333-3.541333L755.669333 384l-1.066666-3.498667-1.109334-3.456-1.194666-3.456-1.152-3.498666-1.28-3.413334-1.28-3.413333-1.28-3.413333-1.408-3.413334-1.365334-3.328-1.450666-3.328-1.450667-3.328-1.536-3.328-1.536-3.242666-1.621333-3.242667-1.621334-3.242667-1.621333-3.157333-1.706667-3.242667-1.792-3.114666-1.706666-3.157334-1.877334-3.114666-1.877333-3.072-1.834667-3.072-1.962666-3.029334-1.92-3.029333-2.005334-3.029333-2.048-2.986667-2.048-2.901333-2.133333-2.944-2.133333-2.858667-2.176-2.901333-2.218667-2.816-2.218667-2.773334-2.261333-2.816-2.261333-2.730666-2.346667-2.730667-2.389333-2.688-2.389334-2.688-2.432-2.645333-2.474666-2.645334-2.474667-2.56-2.56-2.56-2.517333-2.517333-2.56-2.474667-2.645334-2.432-2.645333-2.474666-2.688-2.389334-2.645333-2.389333-2.730667-2.304-2.730667-2.304-2.816-2.261333-2.816-2.218667-2.816-2.218667-2.901333-2.176-2.858667-2.133333-2.944-2.133333-2.901333-2.048-2.986667-2.048-2.986666-1.962667-3.072-1.962667-2.986667-1.962666-3.072-1.834667-3.072-1.877333-3.157333-1.834667-3.157334-1.749333-3.114666-1.749334-3.2-1.706666-3.2-1.706667-3.242667-1.578667-3.242667-1.621333-3.242666-1.536-3.328-1.536-3.328-1.450667-3.285334-1.450666-3.413333-1.365334-3.413333-1.365333-3.328-1.322667-3.413334-1.28-3.456-1.28-3.456-1.152-3.498666-1.152-3.413334-1.152-3.541333-1.066666-3.541333-1.024-3.584-0.981334-3.541334-0.896-3.584-0.938666-3.584-0.853334-3.626666-0.810666-3.669334-0.725334-3.584-0.725333-3.712-0.682667-3.669333-0.64-3.712-0.597333-3.669333-0.512-3.712-0.554667-3.754667-0.426666-3.754667-0.426667-3.84-0.384-3.712-0.256-3.84-0.298667-3.797333-0.213333-3.84-0.128-3.84-0.170667h-3.84L469.333333 170.666667l-3.882666 0.042666z" fill="#00af2c" p-id="2422"></path><path d="M470.613333 213.76c24.917333 2.261333 27.690667 40.618667-14.933333 43.008-107.52 7.552-194.986667 101.888-199.381333 214.101333-1.365333 12.842667-4.992 13.312-9.514667 16.256-14.848 9.813333-33.706667-2.261333-32.896-27.648 5.888-132.181333 122.282667-249.301333 256.725333-245.76zM705.109333 682.709333a22.570667 22.570667 0 0 1 13.184 5.418667 4125.696 4125.696 0 0 1 150.912 150.912c13.866667 16.298667-10.410667 46.976-30.165333 30.165333a4125.696 4125.696 0 0 1-150.912-150.912c-11.136-13.056-1.834667-36.096 16.981333-35.584z" fill="#00af2c" p-id="2423"></path></svg>